<svg width="40" height="40" viewBox="0 0 40 40" fill="none" xmlns="http://www.w3.org/2000/svg">
<circle cx="20" cy="20" r="19.5" stroke="#FF5031"/>
<path d="M19.9338 18.8344C21.2529 18.8344 22.5179 18.3102 23.4505 17.3775C24.3831 16.4447 24.907 15.1796 24.9066 13.8605C24.9064 12.5416 24.3821 11.2766 23.4491 10.3442C22.5162 9.41162 21.2509 8.88812 19.9318 8.88867C18.6129 8.88906 17.3481 9.41357 16.4158 10.3468C15.4836 11.2799 14.9603 12.5453 14.9611 13.8642C14.9632 15.1822 15.4879 16.4456 16.4201 17.3772C17.3523 18.3089 18.6159 18.8329 19.9338 18.8344L19.9338 18.8344ZM19.9338 10.0124V10.0122C20.9555 10.0122 21.9354 10.4181 22.6576 11.1406C23.3801 11.863 23.786 12.8429 23.786 13.8644C23.786 14.886 23.3801 15.8659 22.6576 16.5884C21.9353 17.3108 20.9555 17.7166 19.9338 17.7166C18.9122 17.7166 17.9323 17.3109 17.21 16.5884C16.4876 15.8659 16.0816 14.886 16.0816 13.8644C16.0824 12.8431 16.4885 11.8636 17.2108 11.1413C17.9331 10.419 18.9124 10.0129 19.9338 10.0122V10.0124Z" fill="#FF5031"/>
<path d="M13.6278 31.111H26.235C26.755 31.111 27.2539 30.9044 27.6217 30.5366C27.9895 30.1688 28.1961 29.6699 28.1961 29.1499V28.6371C28.14 26.4826 27.2445 24.4349 25.7007 22.9308C24.1569 21.4268 22.0867 20.585 19.9314 20.585C17.7759 20.585 15.7058 21.4266 14.1621 22.9308C12.6185 24.4351 11.723 26.4827 11.6667 28.6371V29.1499C11.6667 29.6699 11.8735 30.1688 12.2413 30.5366C12.6091 30.9044 13.1078 31.111 13.628 31.111H13.6278ZM12.7873 28.6371C12.8574 26.1324 14.2342 23.8473 16.4159 22.6147C18.5974 21.3821 21.2652 21.3821 23.4469 22.6147C25.6284 23.8472 27.0052 26.1323 27.0753 28.6371V29.1499C27.0753 29.3727 26.9868 29.5865 26.8293 29.7442C26.6716 29.9017 26.4578 29.9904 26.235 29.9904H13.6278C13.4048 29.9904 13.191 29.9017 13.0335 29.7442C12.8758 29.5865 12.7873 29.3727 12.7873 29.1499L12.7873 28.6371Z" fill="#FF5031"/>
</svg>
