<svg width="662" height="413" viewBox="0 0 662 413" fill="none" xmlns="http://www.w3.org/2000/svg">
<g opacity="0.3">
<rect width="39.3175" height="39.3175" transform="matrix(1.19249e-08 -1 -1 -1.19249e-08 131.738 161.27)" fill="#D9D9D9"/>
<rect width="39.3175" height="39.3175" transform="matrix(1.19249e-08 -1 -1 -1.19249e-08 131.738 121.952)" fill="#D9D9D9" fill-opacity="0.5"/>
<rect width="39.3175" height="39.3175" transform="matrix(1.19249e-08 -1 -1 -1.19249e-08 92.4207 121.952)" fill="#D9D9D9" fill-opacity="0.9"/>
<rect width="39.3175" height="39.3175" transform="matrix(1.19249e-08 -1 -1 -1.19249e-08 131.738 82.6347)" fill="#D9D9D9" fill-opacity="0.9"/>
<rect width="39.3175" height="39.3175" transform="matrix(1.19249e-08 -1 -1 -1.19249e-08 131.738 43.3174)" fill="#D9D9D9" fill-opacity="0.5"/>
<rect width="39.3175" height="39.3175" transform="matrix(1.19249e-08 -1 -1 -1.19249e-08 171.056 43.3174)" fill="#D9D9D9" fill-opacity="0.9"/>
<rect width="39.3175" height="39.3175" transform="matrix(1.19249e-08 -1 -1 -1.19249e-08 55.3176 161.27)" fill="#D9D9D9" fill-opacity="0.9"/>
</g>
<g opacity="0.3">
<rect width="39.3175" height="39.3175" transform="matrix(1.19249e-08 -1 -1 -1.19249e-08 621.738 412.27)" fill="#D9D9D9"/>
<rect width="39.3175" height="39.3175" transform="matrix(1.19249e-08 -1 -1 -1.19249e-08 621.738 372.952)" fill="#D9D9D9" fill-opacity="0.5"/>
<rect width="39.3175" height="39.3175" transform="matrix(1.19249e-08 -1 -1 -1.19249e-08 582.421 372.952)" fill="#D9D9D9" fill-opacity="0.9"/>
<rect width="39.3175" height="39.3175" transform="matrix(1.19249e-08 -1 -1 -1.19249e-08 621.738 333.635)" fill="#D9D9D9" fill-opacity="0.9"/>
<rect width="39.3175" height="39.3175" transform="matrix(1.19249e-08 -1 -1 -1.19249e-08 621.738 294.318)" fill="#D9D9D9" fill-opacity="0.5"/>
<rect width="39.3175" height="39.3175" transform="matrix(1.19249e-08 -1 -1 -1.19249e-08 661.055 294.318)" fill="#D9D9D9" fill-opacity="0.9"/>
<rect width="39.3175" height="39.3175" transform="matrix(1.19249e-08 -1 -1 -1.19249e-08 545.317 412.27)" fill="#D9D9D9" fill-opacity="0.9"/>
</g>
<path d="M358.746 276.261C358.953 276.914 359.249 277.872 359.606 279.09C360.32 281.526 361.277 285 362.248 289.148C364.176 297.377 366.156 308.243 366.421 318.927L344.583 332.356L344.974 333.266L366.217 327.566C365.716 334.038 364.367 340.11 361.747 345.116C355.601 356.865 348.005 362.889 339.862 364.896C331.703 366.906 322.891 364.911 314.272 360.401C305.653 355.892 298.988 349.791 295.988 341.942C292.993 334.108 293.611 324.433 299.757 312.685C302.806 306.858 308.013 301.618 314.149 297.029C320.28 292.444 327.31 288.531 333.966 285.351C340.62 282.171 346.89 279.729 351.497 278.081C353.8 277.257 355.687 276.633 356.997 276.214C357.652 276.005 358.164 275.847 358.51 275.741C358.532 275.735 358.552 275.728 358.573 275.722C358.62 275.868 358.679 276.048 358.746 276.261Z" stroke="#FF5031"/>
<path d="M359.769 274.637L359.897 274.663L359.906 274.66L359.922 274.663C359.887 274.826 359.844 275.03 359.789 275.271V275.273C359.213 277.876 357.572 284.914 354.868 293.916C354.742 294.329 354.62 294.74 354.491 295.157L354.49 295.16C353.024 299.955 351.274 305.253 349.23 310.704L349.229 310.705C348.718 312.074 348.199 313.418 347.672 314.734H347.671L347.668 314.742C347.514 315.149 347.354 315.553 347.191 315.948L347.189 315.952C344.942 321.538 342.616 326.653 340.21 331.298L339.601 332.462C332.473 345.918 324.722 355.203 316.466 360.25L316.382 360.111L316.311 359.988C325.432 354.408 333.059 344.001 339.23 332.36C339.434 331.985 339.644 331.596 339.844 331.2C342.456 326.165 344.808 320.923 346.897 315.731L346.896 315.73C347.061 315.329 347.225 314.92 347.386 314.514H347.387C350.109 307.648 352.377 300.915 354.195 294.989L354.194 294.988C354.325 294.567 354.45 294.144 354.572 293.729C357.528 283.948 359.202 276.537 359.621 274.605L359.769 274.637Z" fill="white" stroke="#FF5031"/>
<path d="M338.77 282.629C341.919 286.733 345.925 290.102 350.515 292.495V292.496C351.618 293.073 352.751 293.593 353.907 294.054C354.335 294.225 354.762 294.382 355.176 294.532L355.18 294.533C358.338 295.65 361.64 296.31 364.983 296.497C365.002 296.601 365.02 296.705 365.039 296.809C361.661 296.626 358.326 295.962 355.135 294.835L355.132 294.834L354.515 294.614C354.309 294.538 354.104 294.46 353.901 294.379L353.9 294.378L353.003 294.01C352.11 293.63 351.233 293.214 350.373 292.765C345.723 290.338 341.668 286.919 338.488 282.754C338.582 282.712 338.677 282.671 338.77 282.629Z" fill="white" stroke="#FF5031"/>
<path d="M327.561 288.179C328.364 293.623 330.416 298.81 333.56 303.334C336.843 308.058 341.22 311.917 346.317 314.584C346.43 314.643 346.56 314.71 346.69 314.771V314.772C346.894 314.878 347.099 314.982 347.305 315.082L347.93 315.376C354.016 318.191 360.771 319.219 367.412 318.349C367.414 318.451 367.416 318.553 367.418 318.655C360.752 319.521 353.975 318.494 347.862 315.685H347.861C347.459 315.496 347.06 315.302 346.659 315.099L346.649 315.094L346.176 314.854C341.111 312.203 336.75 308.385 333.455 303.714C330.226 299.137 328.112 293.869 327.278 288.333C327.372 288.281 327.467 288.23 327.561 288.179Z" fill="white" stroke="#FF5031"/>
<path d="M319.186 293.218C317.986 300.437 319.026 307.86 322.184 314.482C325.407 321.241 330.668 326.812 337.216 330.419L337.854 330.761C338.295 330.992 338.741 331.21 339.187 331.421L339.188 331.422C339.397 331.521 339.608 331.617 339.82 331.713L340.46 331.991C348.726 335.5 358 335.756 366.432 332.731C366.412 332.844 366.389 332.955 366.368 333.067C357.866 336.076 348.541 335.785 340.242 332.238H340.243C340.035 332.147 339.829 332.055 339.623 331.962L339.01 331.672L338.998 331.668L338.357 331.36L337.713 331.031C331 327.51 325.568 321.962 322.187 315.177C318.838 308.456 317.672 300.858 318.848 293.445C318.96 293.369 319.073 293.294 319.186 293.218Z" fill="white" stroke="#FF5031"/>
<path d="M87.1041 277.794C87.4507 277.9 87.9619 278.058 88.6168 278.267C89.9268 278.686 91.8138 279.311 94.1168 280.134C98.7238 281.782 104.994 284.224 111.648 287.404C118.304 290.584 125.334 294.497 131.465 299.083C137.601 303.671 142.809 308.911 145.857 314.738C152.003 326.486 152.622 336.161 149.627 343.996C146.626 351.844 139.961 357.945 131.342 362.455C122.724 366.964 113.911 368.959 105.753 366.949C97.6089 364.942 90.0131 358.918 83.8668 347.169C81.2475 342.163 79.8969 336.091 79.3961 329.62L100.64 335.319L101.031 334.41L79.192 320.98C79.4572 310.296 81.4385 299.43 83.3658 291.202C84.3377 287.053 85.2947 283.579 86.0084 281.143C86.3652 279.925 86.6612 278.967 86.8678 278.314C86.9351 278.101 86.9933 277.921 87.0406 277.775C87.0612 277.781 87.0823 277.788 87.1041 277.794Z" stroke="#FF5031"/>
<path d="M85.9916 276.659C86.411 278.591 88.0861 286.004 91.0433 295.788C91.1645 296.202 91.2892 296.624 91.4203 297.045C93.2379 302.97 95.5065 309.702 98.2279 316.567C98.389 316.973 98.5516 317.383 98.7172 317.784V317.785C100.545 322.328 102.574 326.909 104.802 331.356L105.77 333.254C105.97 333.65 106.18 334.038 106.384 334.414C112.555 346.055 120.181 356.462 129.302 362.042L129.232 362.165L129.148 362.304C120.892 357.256 113.141 347.971 106.013 334.515L105.404 333.351C102.998 328.707 100.672 323.592 98.4252 318.006L98.4242 318.002L98.182 317.403C98.1022 317.202 98.023 316.999 97.9457 316.796L97.9427 316.788L97.1576 314.793C96.8981 314.121 96.6406 313.443 96.3851 312.759L95.6322 310.722C93.9076 305.99 92.4065 301.409 91.1244 297.214L91.1234 297.211C90.9935 296.794 90.8717 296.382 90.7455 295.97C88.0415 286.968 86.4023 279.929 85.8256 277.327L85.8246 277.325L85.6908 276.717L85.7084 276.713L85.7181 276.717L85.8451 276.69L85.9916 276.659Z" fill="white" stroke="#FF5031"/>
<path d="M107.125 284.808C103.945 288.972 99.8907 292.392 95.241 294.818C94.0947 295.418 92.9177 295.957 91.7146 296.432H91.7126C91.3076 296.593 90.8952 296.745 90.4832 296.888L90.4802 296.889C87.2886 298.016 83.9528 298.68 80.575 298.862C80.5938 298.758 80.612 298.654 80.6306 298.551C83.9744 298.363 87.2754 297.703 90.4343 296.587L90.4382 296.586C90.8516 296.436 91.2781 296.279 91.7058 296.107L91.7068 296.108C92.8636 295.647 93.9968 295.127 95.1003 294.55L95.0994 294.549C99.6887 292.156 103.695 288.786 106.844 284.683C106.937 284.724 107.031 284.766 107.125 284.808Z" fill="white" stroke="#FF5031"/>
<path d="M118.336 290.388C117.502 295.923 115.388 301.191 112.159 305.768C108.864 310.439 104.503 314.257 99.4376 316.907C99.2747 316.992 99.1212 317.073 98.9659 317.148L98.9562 317.152C98.5543 317.355 98.1551 317.55 97.7531 317.738C91.64 320.548 84.8614 321.575 78.1954 320.709C78.1971 320.607 78.1993 320.505 78.2013 320.402C84.8437 321.273 91.6008 320.243 97.6876 317.427C98.1058 317.238 98.518 317.038 98.924 316.825L98.923 316.824L99.297 316.638C104.394 313.971 108.771 310.111 112.054 305.388C115.198 300.864 117.249 295.676 118.052 290.232C118.147 290.284 118.242 290.336 118.336 290.388Z" fill="white" stroke="#FF5031"/>
<path d="M126.766 295.499C127.942 302.912 126.777 310.51 123.428 317.231C120.047 324.016 114.614 329.563 107.901 333.084C107.471 333.309 107.044 333.525 106.616 333.72L106.605 333.726C106.401 333.825 106.197 333.921 105.991 334.015L105.375 334.289C97.0751 337.837 87.7481 338.13 79.2454 335.12C79.2237 335.009 79.2013 334.897 79.1809 334.785C87.6139 337.81 96.8891 337.552 105.156 334.042C105.586 333.862 106.009 333.672 106.426 333.476L106.427 333.475C106.873 333.264 107.319 333.045 107.76 332.815H107.761C114.606 329.224 120.103 323.512 123.43 316.535C126.588 309.914 127.628 302.49 126.428 295.272C126.541 295.347 126.654 295.423 126.766 295.499Z" fill="white" stroke="#FF5031"/>
<path d="M187.394 315.551C188.172 315.799 189.293 316.17 190.662 316.66C193.4 317.639 197.126 319.091 201.08 320.98C205.035 322.87 209.207 325.193 212.844 327.912C216.484 330.634 219.558 333.732 221.353 337.164C224.993 344.121 225.345 349.82 223.588 354.416C221.825 359.026 217.903 362.626 212.798 365.298C207.692 367.969 202.498 369.138 197.706 367.957C192.929 366.78 188.447 363.241 184.807 356.284C183.303 353.409 182.504 349.928 182.19 346.199L194.561 349.518L194.953 348.609L182.052 340.676C182.221 334.372 183.388 327.966 184.527 323.104C185.105 320.639 185.673 318.575 186.097 317.128C186.309 316.404 186.486 315.835 186.608 315.447C186.623 315.401 186.636 315.358 186.649 315.317C186.842 315.376 187.092 315.454 187.394 315.551Z" stroke="#FF5031"/>
<path d="M197.186 348.289L197.55 348.984C201.816 357.038 206.475 362.627 211.469 365.666C211.541 365.711 211.614 365.751 211.686 365.797L211.89 365.458L212.082 365.13C206.611 361.89 202.018 355.666 198.295 348.642C198.173 348.417 198.049 348.188 197.932 347.956C196.382 344.968 194.986 341.857 193.746 338.773C193.647 338.535 193.551 338.292 193.455 338.049C191.838 333.971 190.49 329.971 189.41 326.449C189.332 326.2 189.258 325.95 189.186 325.703C187.381 319.734 186.381 315.25 186.166 314.254C186.138 314.133 186.125 314.065 186.121 314.05L185.745 314.128L185.74 314.126L185.361 314.206C185.365 314.222 185.409 314.448 185.504 314.863C185.848 316.418 186.826 320.615 188.439 325.984C188.513 326.226 188.587 326.476 188.665 326.725C189.538 329.584 190.583 332.744 191.802 335.996C192.107 336.813 192.417 337.615 192.732 338.401C192.825 338.646 192.921 338.889 193.019 339.127C194.36 342.46 195.749 345.514 197.186 348.289Z" fill="#FF5031"/>
<path d="M182.451 327.149C182.406 327.405 182.358 327.667 182.309 327.933C184.477 327.854 186.62 327.447 188.665 326.724C188.913 326.638 189.163 326.547 189.41 326.448C190.136 326.162 190.846 325.837 191.538 325.475C194.456 323.952 196.988 321.783 198.939 319.132C198.694 319.024 198.454 318.917 198.215 318.81C196.346 321.304 193.941 323.346 191.178 324.787C190.53 325.126 189.865 325.432 189.186 325.702C188.936 325.803 188.686 325.894 188.439 325.984C186.511 326.665 184.494 327.058 182.451 327.149Z" fill="#FF5031"/>
<path d="M180.965 340.101C180.958 340.363 180.954 340.624 180.95 340.884C185.058 341.47 189.248 340.859 193.019 339.126C193.262 339.012 193.503 338.895 193.745 338.772C193.844 338.726 193.94 338.675 194.036 338.625C197.094 337.025 199.726 334.72 201.715 331.901C203.704 329.081 204.992 325.828 205.474 322.411C205.232 322.275 204.988 322.144 204.744 322.013C204.32 325.363 203.092 328.561 201.165 331.333C199.237 334.106 196.668 336.372 193.676 337.937C193.604 337.975 193.528 338.014 193.454 338.049C193.217 338.173 192.976 338.29 192.732 338.4C189.058 340.1 184.969 340.691 180.965 340.101Z" fill="#FF5031"/>
<path d="M181.457 348.545C181.507 348.843 181.556 349.137 181.617 349.429C186.792 351.307 192.487 351.148 197.55 348.984C197.799 348.875 198.047 348.763 198.295 348.642C198.557 348.523 198.817 348.391 199.075 348.256C203.127 346.131 206.406 342.782 208.446 338.687C210.487 334.592 211.185 329.957 210.441 325.443C210.148 325.241 209.849 325.047 209.549 324.85C210.44 329.299 209.866 333.917 207.913 338.012C205.96 342.107 202.733 345.46 198.715 347.568C198.457 347.703 198.195 347.831 197.932 347.956C197.686 348.071 197.438 348.184 197.186 348.289C192.176 350.416 186.534 350.508 181.457 348.545Z" fill="#FF5031"/>
<path d="M442.353 227.033L442.297 227.028C431.916 225.314 420.383 225.315 407.04 227.03H407.034C406.702 227.034 406.371 226.972 406.062 226.848C405.754 226.724 405.472 226.54 405.235 226.306C404.998 226.073 404.809 225.794 404.68 225.488C404.551 225.181 404.483 224.852 404.482 224.519V212.435C404.483 211.768 404.748 211.129 405.219 210.658C405.69 210.186 406.33 209.921 406.996 209.92C418.746 208.388 430.646 208.389 442.395 209.923H442.4C443.059 209.933 443.688 210.202 444.15 210.672C444.612 211.142 444.87 211.776 444.868 212.435V224.519C444.867 225.185 444.602 225.824 444.13 226.296C443.659 226.767 443.02 227.032 442.353 227.033Z" fill="white"/>
<path d="M442.353 227.033L442.297 227.028C431.916 225.314 420.383 225.315 407.04 227.03H407.034C406.702 227.034 406.371 226.972 406.062 226.848C405.754 226.724 405.472 226.54 405.235 226.306C404.998 226.073 404.809 225.794 404.68 225.488C404.551 225.181 404.483 224.852 404.482 224.519V212.435C404.483 211.768 404.748 211.129 405.219 210.658C405.69 210.186 406.33 209.921 406.996 209.92C418.746 208.388 430.646 208.389 442.395 209.923H442.4C443.059 209.933 443.688 210.202 444.15 210.672C444.612 211.142 444.87 211.776 444.868 212.435V224.519C444.867 225.185 444.602 225.824 444.13 226.296C443.659 226.767 443.02 227.032 442.353 227.033ZM424.226 209.458C418.479 209.448 412.738 209.83 407.043 210.602C406.799 210.598 406.557 210.642 406.33 210.732C406.104 210.823 405.897 210.957 405.723 211.127C405.548 211.298 405.409 211.501 405.314 211.725C405.218 211.95 405.168 212.191 405.166 212.435V224.519C405.167 225.004 405.36 225.469 405.703 225.812C406.046 226.155 406.511 226.348 406.996 226.349C420.351 224.629 431.939 224.628 442.38 226.348C442.861 226.341 443.319 226.145 443.656 225.802C443.993 225.46 444.183 224.999 444.183 224.519V212.435C444.183 211.95 443.99 211.485 443.647 211.142C443.304 210.798 442.838 210.606 442.353 210.605C436.34 209.851 430.286 209.468 424.226 209.458Z" fill="#47A138"/>
<path d="M424.675 222.692C427.321 222.692 429.467 220.547 429.467 217.9C429.467 215.254 427.321 213.109 424.675 213.109C422.029 213.109 419.883 215.254 419.883 217.9C419.883 220.547 422.029 222.692 424.675 222.692Z" fill="#47A138"/>
<path d="M412.354 215.397H408.247C407.974 215.396 407.713 215.288 407.521 215.096C407.328 214.903 407.22 214.642 407.22 214.37V213.001C407.22 212.729 407.328 212.468 407.521 212.275C407.713 212.083 407.974 211.974 408.247 211.974H412.354C412.626 211.974 412.887 212.083 413.079 212.275C413.272 212.468 413.38 212.729 413.38 213.001V214.37C413.38 214.642 413.272 214.903 413.079 215.096C412.887 215.288 412.626 215.396 412.354 215.397Z" fill="#47A138"/>
<path d="M441.103 224.98H436.996C436.724 224.979 436.463 224.871 436.27 224.679C436.078 224.486 435.97 224.225 435.969 223.953V222.584C435.97 222.312 436.078 222.051 436.27 221.858C436.463 221.666 436.724 221.558 436.996 221.557H441.103C441.375 221.558 441.636 221.666 441.829 221.858C442.021 222.051 442.13 222.312 442.13 222.584V223.953C442.13 224.225 442.021 224.486 441.829 224.679C441.636 224.871 441.375 224.979 441.103 224.98Z" fill="#47A138"/>
<path d="M436.51 222.036L436.46 222.01C427.562 216.393 416.937 211.909 403.977 208.3L403.972 208.298C403.664 208.172 403.384 207.987 403.148 207.752C402.911 207.518 402.724 207.238 402.596 206.931C402.468 206.624 402.403 206.294 402.403 205.961C402.403 205.628 402.469 205.299 402.597 204.991L407.296 193.859C407.556 193.245 408.049 192.759 408.667 192.508C409.284 192.257 409.976 192.262 410.591 192.52C422.012 195.678 432.974 200.306 443.202 206.289L443.207 206.291C443.81 206.556 444.285 207.048 444.527 207.661C444.77 208.274 444.762 208.958 444.503 209.564L439.804 220.697C439.544 221.311 439.051 221.797 438.434 222.048C437.816 222.299 437.124 222.294 436.51 222.036Z" fill="white"/>
<path d="M436.51 222.036L436.46 222.01C427.562 216.393 416.937 211.909 403.977 208.3L403.972 208.298C403.664 208.172 403.384 207.987 403.148 207.752C402.911 207.518 402.724 207.238 402.596 206.931C402.468 206.624 402.403 206.294 402.403 205.961C402.403 205.628 402.469 205.299 402.597 204.991L407.296 193.859C407.556 193.245 408.049 192.759 408.667 192.508C409.284 192.257 409.976 192.262 410.591 192.52C422.012 195.678 432.974 200.306 443.202 206.289L443.207 206.291C443.81 206.556 444.285 207.048 444.527 207.661C444.77 208.274 444.762 208.958 444.503 209.564L439.804 220.697C439.544 221.311 439.051 221.797 438.434 222.048C437.816 222.299 437.124 222.294 436.51 222.036ZM426.644 198.795C421.353 196.55 415.916 194.67 410.369 193.166C410.146 193.067 409.905 193.014 409.661 193.009C409.418 193.004 409.175 193.047 408.948 193.137C408.721 193.226 408.514 193.359 408.339 193.529C408.164 193.698 408.024 193.901 407.927 194.125L403.228 205.258C403.04 205.705 403.037 206.208 403.219 206.658C403.402 207.107 403.755 207.466 404.202 207.655C417.174 211.264 427.851 215.77 436.801 221.415C437.246 221.595 437.745 221.593 438.189 221.409C438.632 221.224 438.986 220.873 439.174 220.431L443.873 209.298C444.061 208.851 444.064 208.347 443.881 207.898C443.699 207.448 443.345 207.09 442.899 206.901C437.652 203.867 432.224 201.16 426.644 198.795V198.795Z" fill="#47A138"/>
<path d="M423.775 211.538C426.421 211.538 428.566 209.393 428.566 206.746C428.566 204.1 426.421 201.955 423.775 201.955C421.128 201.955 418.983 204.1 418.983 206.746C418.983 209.393 421.128 211.538 423.775 211.538Z" fill="#47A138"/>
<path d="M413.397 199.648L409.613 198.051C409.362 197.945 409.164 197.744 409.062 197.492C408.959 197.24 408.961 196.957 409.066 196.706L409.599 195.445C409.705 195.194 409.906 194.996 410.158 194.893C410.411 194.791 410.693 194.793 410.944 194.898L414.728 196.495C414.979 196.602 415.177 196.803 415.279 197.055C415.382 197.307 415.38 197.59 415.274 197.841L414.742 199.102C414.636 199.353 414.435 199.551 414.182 199.653C413.93 199.756 413.648 199.754 413.397 199.648Z" fill="#47A138"/>
<path d="M436.156 219.658L432.373 218.06C432.122 217.954 431.924 217.753 431.821 217.501C431.719 217.249 431.72 216.966 431.826 216.715L432.358 215.454C432.464 215.203 432.666 215.005 432.918 214.902C433.17 214.8 433.453 214.802 433.704 214.907L437.487 216.504C437.738 216.611 437.936 216.812 438.039 217.064C438.141 217.316 438.14 217.599 438.034 217.85L437.502 219.111C437.395 219.362 437.194 219.56 436.942 219.662C436.69 219.765 436.407 219.763 436.156 219.658Z" fill="#47A138"/>
<path d="M447.138 204.745L446.961 205.054L447.196 205.322C447.81 206.024 448.263 206.853 448.522 207.75C448.781 208.646 448.84 209.588 448.696 210.51C448.551 211.432 448.207 212.311 447.686 213.085C447.165 213.86 446.481 214.51 445.681 214.992L445.678 214.994C444.337 215.813 442.742 216.111 441.195 215.833C439.648 215.554 438.257 214.718 437.286 213.483C436.314 212.247 435.829 210.698 435.923 209.129C436.018 207.56 436.684 206.081 437.796 204.97L437.857 204.909L437.894 204.832L447.333 185.045L458.798 184.305L447.138 204.745Z" stroke="black"/>
<path d="M538.753 328.389L538.752 359.758H531.302L527.432 328.389H538.753Z" stroke="black"/>
<path d="M541.392 368.392L514.333 368.391V368.049C514.333 365.256 515.443 362.577 517.418 360.602C519.393 358.627 522.072 357.517 524.865 357.517H524.866L541.393 357.518L541.392 368.392Z" fill="#2F2E41"/>
<path d="M481.254 328.389L481.253 359.758H473.804L469.934 328.389H481.254Z" stroke="black"/>
<path d="M483.894 368.392L456.835 368.391V368.049C456.835 365.256 457.945 362.577 459.92 360.602C461.895 358.627 464.574 357.517 467.367 357.517H467.367L483.894 357.518L483.894 368.392Z" fill="#2F2E41"/>
<path d="M460.174 184.66C460.174 184.66 457.866 217.531 462.412 234.085C466.958 250.64 467.77 350.753 467.77 350.753H483.009L496.216 214.478L526.664 351.234L541.179 350.236L533.219 189.087L460.174 184.66Z" fill="#2F2E41"/>
<path d="M526.922 73.8532L515.273 65.3524L495.752 69.6028L490.468 82.1582L481.363 86.6726C478.37 88.1569 475.781 90.3459 473.82 93.0516C471.859 95.7572 470.584 98.8986 470.105 102.206L457.098 192.03L533.219 189.087L542.434 83.3018C542.531 82.1967 542.404 81.0836 542.063 80.0283C541.721 78.973 541.171 77.9969 540.446 77.1578C539.72 76.3187 538.834 75.6337 537.839 75.1433C536.844 74.6529 535.761 74.367 534.653 74.3027L526.922 73.8532Z" fill="#CBCBCB"/>
<path d="M476.546 93.6886L469.516 103.166L438.894 196.564L453.248 202.311L476.232 158.789L476.546 93.6886Z" fill="#CBCBCB"/>
<path d="M501.717 13.7624C514.309 13.7625 524.516 23.9699 524.516 36.5613C524.516 49.1526 514.308 59.36 501.717 59.3601C489.126 59.3601 478.918 49.1526 478.918 36.5613C478.918 23.9699 489.126 13.7624 501.717 13.7624Z" stroke="black"/>
<path d="M502.032 60.9142C511.422 60.9142 519.034 53.3022 519.034 43.9124C519.034 34.5226 511.422 26.9106 502.032 26.9106C492.642 26.9106 485.03 34.5226 485.03 43.9124C485.03 53.3022 492.642 60.9142 502.032 60.9142Z" fill="#389429"/>
<path d="M499.828 0.648453C506.855 0.648468 512.551 6.34504 512.551 13.3721C512.551 20.3991 506.855 26.0957 499.828 26.0957C492.801 26.0957 487.104 20.3991 487.104 13.3721C487.104 6.34503 492.801 0.648453 499.828 0.648453Z" stroke="black"/>
<path d="M519.452 30.3831C519.383 33.7785 518.467 37.026 516.894 39.4517C515.32 41.8774 513.21 43.295 511.001 43.4104C511.137 43.423 511.271 43.4475 511.41 43.4502C513.69 43.4954 515.905 42.1457 517.567 39.6982C519.229 37.2507 520.201 33.9058 520.271 30.3994C520.34 26.8929 519.5 23.5122 517.937 21.0009C516.373 18.4895 514.213 17.0533 511.933 17.0082C511.794 17.0055 511.659 17.0247 511.523 17.0319C513.725 17.2345 515.778 18.7345 517.255 21.2206C518.731 23.7066 519.518 26.9878 519.452 30.3831Z" fill="black"/>
<path opacity="0.1" d="M532.606 99.0675L527.863 146.357L511.11 179.374L532.606 99.0675Z" fill="black"/>
<path d="M31.1451 244.612H27.038V248.034H31.1451V244.612Z" fill="#F0F0F0"/>
<path d="M419.623 248.034H411.53V244.612H419.623V248.034ZM403.437 248.034H395.343V244.612H403.437V248.034ZM387.25 248.034H379.157V244.612H387.25V248.034ZM371.064 248.034H362.97V244.612H371.064V248.034ZM354.877 248.034H346.784V244.612H354.877V248.034ZM338.69 248.034H330.597V244.612H338.69L338.69 248.034ZM322.504 248.034H314.411V244.612H322.504V248.034ZM306.317 248.034H298.224V244.612H306.317V248.034ZM290.131 248.034H282.038V244.612H290.131V248.034ZM273.944 248.034H265.851V244.612H273.944L273.944 248.034ZM257.758 248.034H249.664V244.612H257.758L257.758 248.034ZM241.571 248.034H233.478V244.612H241.571L241.571 248.034ZM225.385 248.034H217.291V244.612H225.385L225.385 248.034ZM209.198 248.034H201.105V244.612H209.198L209.198 248.034ZM193.011 248.034H184.918V244.612H193.011L193.011 248.034ZM176.825 248.034H168.731V244.612H176.825L176.825 248.034ZM160.638 248.034H152.545V244.612H160.638L160.638 248.034ZM144.451 248.034H136.358V244.612H144.452L144.451 248.034ZM128.265 248.034H120.172V244.612H128.265L128.265 248.034ZM112.078 248.034H103.985V244.612H112.078L112.078 248.034ZM95.8915 248.034H87.7986V244.612H95.8917L95.8915 248.034ZM79.705 248.034H71.6118V244.612H79.7052L79.705 248.034ZM63.5184 248.034H55.4252V244.612H63.5187L63.5184 248.034ZM47.3319 248.034H39.2386V244.612H47.3321L47.3319 248.034Z" fill="#F8F8F8"/>
<path d="M31.1451 157.679H27.038V161.101H31.1451V157.679Z" fill="#F0F0F0"/>
<path d="M419.385 161.423H411.292V158H419.385V161.423ZM403.199 161.423H395.105V158H403.199V161.423ZM387.012 161.423H378.919V158H387.012V161.423ZM370.826 161.423H362.732V158H370.826V161.423ZM354.639 161.423H346.546V158H354.639V161.423ZM338.452 161.423H330.359V158H338.452L338.452 161.423ZM322.266 161.423H314.173V158H322.266V161.423ZM306.079 161.423H297.986V158H306.079V161.423ZM289.892 161.423H281.799V158H289.892V161.423ZM273.706 161.423H265.612V158H273.706L273.706 161.423ZM257.519 161.423H249.426V158H257.519L257.519 161.423ZM241.333 161.423H233.239V158H241.333L241.333 161.423ZM225.146 161.423H217.053V158H225.146L225.146 161.423ZM208.959 161.423H200.866V158H208.959L208.959 161.423ZM192.773 161.423H184.68V158H192.773L192.773 161.423ZM176.586 161.423H168.493V158H176.586L176.586 161.423ZM160.4 161.423H152.306V158H160.4L160.4 161.423ZM144.213 161.423H136.12V158H144.213L144.213 161.423ZM128.026 161.423H119.933V158H128.026L128.026 161.423ZM111.84 161.423H103.747V158H111.84L111.84 161.423ZM95.653 161.423H87.5601V158H95.6532L95.653 161.423ZM79.4664 161.423H71.3732V158H79.4667L79.4664 161.423ZM63.2799 161.423H55.1867V158H63.2801L63.2799 161.423ZM47.0933 161.423H39.0001V158H47.0936L47.0933 161.423Z" fill="#F8F8F8"/>
<path d="M419.385 69.2463H411.292V65.8238H419.385V69.2463ZM403.199 69.2463H395.105V65.8238H403.199V69.2463ZM387.012 69.2463H378.919V65.8238H387.012V69.2463ZM370.826 69.2463H362.732V65.8238H370.826V69.2463ZM354.639 69.2463H346.546V65.8238H354.639V69.2463ZM338.452 69.2463H330.359V65.8238H338.452L338.452 69.2463ZM322.266 69.2463H314.173V65.8238H322.266V69.2463ZM306.079 69.2463H297.986V65.8238H306.079V69.2463ZM289.892 69.2463H281.799V65.8238H289.892V69.2463ZM273.706 69.2463H265.612V65.8238H273.706L273.706 69.2463ZM257.519 69.2463H249.426V65.8238H257.519L257.519 69.2463ZM241.333 69.2463H233.239V65.8238H241.333L241.333 69.2463ZM225.146 69.2463H217.053V65.8238H225.146L225.146 69.2463ZM208.959 69.2463H200.866V65.8238H208.959L208.959 69.2463ZM192.773 69.2463H184.68V65.8238H192.773L192.773 69.2463ZM176.586 69.2463H168.493V65.8238H176.586L176.586 69.2463ZM160.4 69.2463H152.306V65.8238H160.4L160.4 69.2463ZM144.213 69.2463H136.12V65.8238H144.213L144.213 69.2463ZM128.026 69.2463H119.933V65.8238H128.026L128.026 69.2463ZM111.84 69.2463H103.747V65.8238H111.84L111.84 69.2463ZM95.653 69.2463H87.5601V65.8238H95.6532L95.653 69.2463ZM79.4664 69.2463H71.3732V65.8238H79.4667L79.4664 69.2463ZM63.2799 69.2463H55.1867V65.8238H63.2801L63.2799 69.2463ZM47.0933 69.2463H39.0001V65.8238H47.0936L47.0933 69.2463Z" fill="#F8F8F8"/>
<path d="M160.859 245.638H127.318V368.85H160.859V245.638Z" fill="#3F3D56"/>
<path d="M167.02 245.638H133.479V368.85H167.02V245.638Z" fill="#47A138"/>
<path d="M240.262 158.706H206.721V368.85H240.262V158.706Z" fill="#3F3D56"/>
<path d="M246.423 158.706H212.882V368.85H246.423V158.706Z" fill="#47A138"/>
<path d="M319.665 71.7734H286.124V368.85H319.665V71.7734Z" fill="#3F3D56"/>
<path d="M325.825 71.7734H292.285V368.85H325.825V71.7734Z" fill="#47A138"/>
<path d="M27.3805 167.604C31.917 167.604 35.5946 163.927 35.5946 159.39C35.5946 154.854 31.917 151.176 27.3805 151.176C22.844 151.176 19.1664 154.854 19.1664 159.39C19.1664 163.927 22.844 167.604 27.3805 167.604Z" fill="#F8F8F8"/>
<path d="M27.3805 75.4282C31.917 75.4282 35.5946 71.7506 35.5946 67.2141C35.5946 62.6776 31.917 59 27.3805 59C22.844 59 19.1664 62.6776 19.1664 67.2141C19.1664 71.7506 22.844 75.4282 27.3805 75.4282Z" fill="#F8F8F8"/>
<path d="M27.3804 254.537C31.9169 254.537 35.5945 250.859 35.5945 246.323C35.5945 241.786 31.9169 238.109 27.3804 238.109C22.8439 238.109 19.1663 241.786 19.1663 246.323C19.1663 250.859 22.8439 254.537 27.3804 254.537Z" fill="#F8F8F8"/>
<path d="M607.843 368.083H9.15527e-05V369.616H607.843V368.083Z" fill="#47A138"/>
<path d="M512.858 211.974L512.802 211.97C502.42 210.255 490.887 210.256 477.544 211.972H477.539C477.206 211.975 476.876 211.914 476.567 211.789C476.258 211.665 475.977 211.481 475.74 211.247C475.502 211.014 475.314 210.736 475.184 210.429C475.055 210.122 474.988 209.793 474.986 209.46V197.376C474.987 196.709 475.252 196.07 475.724 195.599C476.195 195.127 476.834 194.862 477.501 194.862C489.251 193.329 501.15 193.33 512.9 194.864H512.905C513.564 194.874 514.192 195.143 514.654 195.613C515.116 196.084 515.374 196.717 515.372 197.376V209.46C515.371 210.126 515.106 210.766 514.635 211.237C514.163 211.708 513.524 211.973 512.858 211.974Z" fill="white"/>
<path d="M512.858 211.974L512.802 211.97C502.42 210.255 490.887 210.256 477.544 211.972H477.539C477.206 211.975 476.876 211.914 476.567 211.789C476.258 211.665 475.977 211.481 475.74 211.247C475.502 211.014 475.314 210.736 475.184 210.429C475.055 210.122 474.988 209.793 474.986 209.46V197.376C474.987 196.709 475.252 196.07 475.724 195.599C476.195 195.127 476.834 194.862 477.501 194.862C489.251 193.329 501.15 193.33 512.9 194.864H512.905C513.564 194.874 514.192 195.143 514.654 195.613C515.116 196.084 515.374 196.717 515.372 197.376V209.46C515.371 210.126 515.106 210.766 514.635 211.237C514.163 211.708 513.524 211.973 512.858 211.974ZM494.73 194.399C488.983 194.389 483.242 194.771 477.547 195.543C477.303 195.539 477.061 195.583 476.835 195.674C476.608 195.764 476.402 195.898 476.227 196.068C476.053 196.239 475.914 196.442 475.818 196.667C475.723 196.891 475.673 197.132 475.671 197.376V209.46C475.671 209.945 475.864 210.41 476.207 210.753C476.55 211.096 477.015 211.289 477.501 211.29C490.855 209.57 502.444 209.569 512.885 211.289C513.365 211.282 513.823 211.086 514.161 210.744C514.498 210.401 514.687 209.94 514.688 209.46V197.376C514.687 196.891 514.494 196.426 514.151 196.083C513.808 195.74 513.343 195.547 512.858 195.546C506.845 194.792 500.791 194.409 494.73 194.399Z" fill="#47A138"/>
<path d="M495.179 207.632C497.825 207.632 499.971 205.487 499.971 202.841C499.971 200.195 497.825 198.049 495.179 198.049C492.533 198.049 490.388 200.195 490.388 202.841C490.388 205.487 492.533 207.632 495.179 207.632Z" fill="#47A138"/>
<path d="M482.858 200.338H478.751C478.479 200.337 478.218 200.229 478.025 200.037C477.833 199.844 477.724 199.583 477.724 199.311V197.942C477.724 197.67 477.833 197.409 478.025 197.216C478.218 197.024 478.479 196.915 478.751 196.915H482.858C483.13 196.915 483.391 197.024 483.584 197.216C483.776 197.409 483.884 197.67 483.885 197.942V199.311C483.884 199.583 483.776 199.844 483.584 200.037C483.391 200.229 483.13 200.337 482.858 200.338Z" fill="#47A138"/>
<path d="M511.607 209.921H507.5C507.228 209.921 506.967 209.812 506.774 209.62C506.582 209.427 506.474 209.166 506.473 208.894V207.525C506.474 207.253 506.582 206.992 506.774 206.799C506.967 206.607 507.228 206.499 507.5 206.498H511.607C511.879 206.499 512.14 206.607 512.333 206.799C512.525 206.992 512.634 207.253 512.634 207.525V208.894C512.634 209.166 512.525 209.427 512.333 209.62C512.14 209.812 511.879 209.921 511.607 209.921Z" fill="#47A138"/>
<path d="M529.225 177.548L518.451 196.638L518.409 196.714L518.393 196.798C518.123 198.347 517.294 199.742 516.064 200.72C514.834 201.699 513.288 202.192 511.718 202.106C510.149 202.02 508.665 201.362 507.549 200.256C506.432 199.149 505.761 197.672 505.661 196.103V196.099C505.596 195.169 505.735 194.235 506.07 193.364C506.405 192.493 506.927 191.705 507.598 191.057C508.27 190.41 509.075 189.917 509.958 189.615C510.84 189.312 511.779 189.207 512.707 189.306L513.061 189.343L513.213 189.022L523.247 167.736L529.225 177.548Z" stroke="black"/>
<path d="M533.52 80.3997L537.816 74.7978C537.816 74.7978 548.282 72.6661 550.06 87.0417L548.94 150.951L526.005 187.05L511.11 183.247L530.585 140.364L533.52 80.3997Z" fill="#CBCBCB"/>
<path d="M505.071 44.9084C505.381 44.7725 505.664 44.5551 505.901 44.2706C506.058 44.0678 506.178 43.8244 506.252 43.5575C506.326 43.2906 506.353 43.0066 506.33 42.7255C506.317 42.5251 506.267 42.3312 506.184 42.1591C506.101 41.9869 505.988 41.8411 505.852 41.733C505.501 41.4625 505.037 41.4727 504.569 41.7448L504.515 37L504.134 37.0068L504.198 42.5847L504.488 42.3468C504.823 42.0713 505.306 41.8715 505.653 42.1391C505.739 42.2099 505.811 42.3046 505.862 42.4157C505.914 42.5269 505.945 42.6516 505.952 42.7801C505.968 42.9895 505.948 43.2008 505.893 43.3996C505.838 43.5984 505.749 43.78 505.633 43.9321C505.221 44.4448 504.611 44.6166 503.914 44.7737L503.981 45.2428C504.352 45.1723 504.716 45.0604 505.071 44.9084Z" fill="black"/>
<path d="M511.67 38.0607L508.038 38.6109L508.14 39.2853L511.772 38.7351L511.67 38.0607Z" fill="black"/>
<path d="M493.102 38.0607L496.735 38.6109L496.633 39.2853L493 38.7351L493.102 38.0607Z" fill="black"/>
</svg>
