<svg width="334" height="267" viewBox="0 0 334 267" fill="none" xmlns="http://www.w3.org/2000/svg">
<path d="M24.3624 208.617C24.7735 208.704 25.3367 208.828 26.0304 208.989C27.5395 209.339 29.6667 209.87 32.1974 210.602L33.3185 215.11L34.3029 215.023L34.5529 211.307C38.5424 212.536 42.466 213.977 46.3068 215.627L48.5724 224.738L49.5568 224.65L50.049 217.342C55.6163 220.045 61.1169 223.43 65.5187 227.596C72.9484 234.627 78.5317 242.215 81.5616 248.783C83.0772 252.069 83.9433 255.076 84.0968 257.616C84.2503 260.156 83.6912 262.181 82.4161 263.582C81.1425 264.981 79.2084 265.699 76.7198 265.732C74.2286 265.764 71.2264 265.108 67.9015 263.812C61.4622 261.301 53.9065 256.426 46.6857 249.731L45.9884 249.076C44.7415 247.888 43.5582 246.632 42.4435 245.315L50.8536 244.078L50.8683 243.092L39.1124 240.986C34.0742 233.82 30.3417 225.572 27.8624 219.086C26.6141 215.82 25.6848 213.007 25.0685 211.01C24.7603 210.012 24.5308 209.217 24.3781 208.674C24.3727 208.655 24.3676 208.636 24.3624 208.617Z" stroke="#47A138"/>
<path d="M57.7745 188.264C58.0848 188.55 58.5087 188.946 59.0265 189.443C60.148 190.52 61.7103 192.069 63.5177 193.996L62.1857 198.368L63.0724 198.802L65.1818 195.807C67.9938 198.911 70.641 202.159 73.1095 205.541L70.4152 214.379L71.3019 214.812L75.4532 208.919C78.8733 214.082 81.8892 219.786 83.5568 225.577C86.3702 235.347 87.3083 244.629 86.5675 251.727C86.197 255.277 85.4087 258.255 84.2462 260.471C83.0846 262.684 81.5726 264.097 79.7609 264.615C77.949 265.133 75.9146 264.734 73.7511 263.47C71.5861 262.205 69.3325 260.096 67.129 257.281C62.7238 251.654 58.5802 243.289 55.7667 233.519H55.7677C55.3012 231.878 54.9239 230.214 54.6359 228.533L62.506 231.848L63.0275 231.01L53.9718 223.143C53.2878 214.5 54.2802 205.624 55.4532 198.879C56.0439 195.483 56.6786 192.633 57.1661 190.633C57.4099 189.633 57.6173 188.845 57.7628 188.309C57.7669 188.293 57.7705 188.278 57.7745 188.264Z" stroke="#47A138"/>
<path d="M209.222 63.2663H207.76V23.1938C207.76 20.1479 207.16 17.1319 205.996 14.3179C204.831 11.5039 203.123 8.94705 200.971 6.79331C198.819 4.63956 196.263 2.93112 193.451 1.76552C190.639 0.599924 187.625 0 184.581 0H99.7329C93.5854 0 87.6897 2.44363 83.3428 6.79331C78.9959 11.143 76.5538 17.0424 76.5538 23.1938V243.039C76.5538 246.084 77.1534 249.1 78.3182 251.914C79.4831 254.728 81.1904 257.285 83.3428 259.439C85.4952 261.593 88.0504 263.301 90.8627 264.467C93.6749 265.632 96.689 266.232 99.7329 266.232H184.581C190.728 266.232 196.624 263.789 200.971 259.439C205.318 255.089 207.76 249.19 207.76 243.039V91.7907H209.221L209.222 63.2663Z" fill="#E6E6E6"/>
<path d="M185.602 6.2749H174.505C175.016 7.52209 175.21 8.87525 175.073 10.2152C174.935 11.5551 174.468 12.8406 173.714 13.9585C172.96 15.0764 171.942 15.9924 170.75 16.6257C169.557 17.259 168.226 17.5902 166.875 17.5901H118.168C116.817 17.5901 115.487 17.2588 114.294 16.6254C113.101 15.9921 112.083 15.0761 111.33 13.9582C110.576 12.8403 110.109 11.5548 109.972 10.215C109.834 8.87513 110.028 7.52204 110.539 6.2749H100.174C95.5734 6.2749 91.1617 8.0963 87.9089 11.3384C84.6561 14.5805 82.8287 18.9778 82.8287 23.5628V242.67C82.8287 247.255 84.6561 251.652 87.9089 254.894C91.1617 258.136 95.5734 259.958 100.174 259.958H185.602C190.202 259.958 194.614 258.136 197.867 254.894C201.12 251.652 202.947 247.255 202.947 242.67V23.5624C202.947 18.9775 201.12 14.5803 197.867 11.3383C194.614 8.09625 190.202 6.2749 185.602 6.2749Z" fill="white"/>
<path d="M131.532 93.2268C131.532 91.653 131.919 90.107 132.653 88.7442C133.388 87.3814 134.444 86.25 135.717 85.4638C134.445 84.6768 133.002 84.2624 131.534 84.2622C130.065 84.262 128.622 84.6761 127.351 85.4628C126.079 86.2495 125.022 87.3812 124.288 88.7439C123.554 90.1067 123.167 91.6526 123.167 93.2263C123.167 94.7999 123.554 96.3458 124.288 97.7086C125.022 99.0714 126.079 100.203 127.351 100.99C128.622 101.776 130.065 102.19 131.534 102.19C133.002 102.19 134.445 101.776 135.717 100.989C134.445 100.203 133.388 99.0715 132.653 97.7089C131.919 96.3463 131.532 94.8004 131.532 93.2268Z" fill="#CCCCCC"/>
<path d="M142.887 93.2268C142.886 91.653 143.3 90.1069 144.088 88.7441C144.875 87.3813 146.007 86.2499 147.37 85.4638C146.007 84.6768 144.462 84.2624 142.888 84.2622C141.315 84.262 139.769 84.6761 138.406 85.4628C137.043 86.2495 135.912 87.3812 135.125 88.7439C134.338 90.1067 133.924 91.6526 133.924 93.2263C133.924 94.7999 134.338 96.3458 135.125 97.7086C135.912 99.0714 137.043 100.203 138.406 100.99C139.769 101.776 141.315 102.19 142.888 102.19C144.462 102.19 146.007 101.776 147.37 100.989C146.007 100.203 144.875 99.0715 144.088 97.7089C143.301 96.3463 142.886 94.8004 142.887 93.2268Z" fill="#CCCCCC"/>
<path d="M153.645 102.19C158.596 102.19 162.609 98.177 162.609 93.2263C162.609 88.2755 158.596 84.2622 153.645 84.2622C148.694 84.2622 144.681 88.2755 144.681 93.2263C144.681 98.177 148.694 102.19 153.645 102.19Z" fill="#47A138"/>
<path d="M167.948 121.015H116.931C116.446 121.014 115.98 120.821 115.636 120.478C115.293 120.134 115.1 119.668 115.099 119.183V68.1659C115.1 67.6802 115.293 67.2146 115.636 66.8712C115.98 66.5277 116.446 66.3346 116.931 66.334H167.948C168.434 66.3346 168.899 66.5277 169.243 66.8712C169.586 67.2146 169.779 67.6802 169.78 68.1659V119.183C169.779 119.668 169.586 120.134 169.243 120.478C168.899 120.821 168.434 121.014 167.948 121.015ZM116.931 67.0672C116.64 67.0675 116.36 67.1834 116.154 67.3894C115.948 67.5955 115.832 67.8749 115.832 68.1663V119.183C115.832 119.475 115.948 119.754 116.154 119.96C116.36 120.166 116.64 120.282 116.931 120.282H167.948C168.239 120.282 168.519 120.166 168.725 119.96C168.931 119.754 169.047 119.475 169.047 119.183V68.1663C169.047 67.8749 168.931 67.5955 168.725 67.3894C168.519 67.1834 168.239 67.0675 167.948 67.0672H116.931Z" fill="#CCCCCC"/>
<path d="M191.091 157.179H96.0719V158.075H191.091V157.179Z" fill="#004D61"/>
<path d="M191.091 184.967H96.0719V185.864H191.091V184.967Z" fill="#004D61"/>
<path d="M98.9803 151.576C100.736 151.576 102.159 150.152 102.159 148.397C102.159 146.641 100.736 145.218 98.9803 145.218C97.2246 145.218 95.8014 146.641 95.8014 148.397C95.8014 150.152 97.2246 151.576 98.9803 151.576Z" fill="#47A138"/>
<path d="M98.9803 178.75C100.736 178.75 102.159 177.327 102.159 175.571C102.159 173.815 100.736 172.392 98.9803 172.392C97.2246 172.392 95.8014 173.815 95.8014 175.571C95.8014 177.327 97.2246 178.75 98.9803 178.75Z" fill="#47A138"/>
<path d="M188.848 218.779H157.037C156.487 218.778 155.96 218.56 155.572 218.171C155.183 217.783 154.965 217.256 154.964 216.706V205.557C154.965 205.007 155.183 204.48 155.572 204.092C155.96 203.703 156.487 203.484 157.037 203.484H188.848C189.398 203.484 189.925 203.703 190.313 204.092C190.702 204.48 190.92 205.007 190.921 205.557V216.706C190.92 217.256 190.702 217.783 190.313 218.171C189.925 218.56 189.398 218.778 188.848 218.779Z" fill="#47A138"/>
<path d="M109.349 151.576C111.105 151.576 112.528 150.152 112.528 148.397C112.528 146.641 111.105 145.218 109.349 145.218C107.594 145.218 106.171 146.641 106.171 148.397C106.171 150.152 107.594 151.576 109.349 151.576Z" fill="#47A138"/>
<path d="M109.349 178.75C111.105 178.75 112.528 177.327 112.528 175.571C112.528 173.815 111.105 172.392 109.349 172.392C107.594 172.392 106.171 173.815 106.171 175.571C106.171 177.327 107.594 178.75 109.349 178.75Z" fill="#47A138"/>
<path d="M119.719 151.576C121.474 151.576 122.898 150.152 122.898 148.397C122.898 146.641 121.474 145.218 119.719 145.218C117.963 145.218 116.54 146.641 116.54 148.397C116.54 150.152 117.963 151.576 119.719 151.576Z" fill="#47A138"/>
<path d="M119.719 178.75C121.474 178.75 122.898 177.327 122.898 175.571C122.898 173.815 121.474 172.392 119.719 172.392C117.963 172.392 116.54 173.815 116.54 175.571C116.54 177.327 117.963 178.75 119.719 178.75Z" fill="#47A138"/>
<path d="M332.346 267H1.65403C0.946112 267 0.372681 266.749 0.372681 266.439C0.372681 266.13 0.946112 265.878 1.65403 265.878H332.346C333.053 265.878 333.627 266.129 333.627 266.439C333.627 266.749 333.053 267 332.346 267Z" fill="#3F3D56"/>
<path d="M248.855 103.46L212.309 113.102L212.039 113.173L211.958 113.44C211.887 113.673 211.802 113.901 211.704 114.124C211.213 115.17 210.422 116.049 209.432 116.648C208.441 117.248 207.295 117.543 206.137 117.495C204.979 117.447 203.86 117.059 202.923 116.38C201.986 115.7 201.27 114.76 200.867 113.677C200.464 112.594 200.392 111.416 200.657 110.291C200.923 109.167 201.516 108.145 202.361 107.355C203.207 106.566 204.269 106.042 205.412 105.852C206.554 105.662 207.727 105.811 208.783 106.283V106.284C209.065 106.413 209.336 106.563 209.593 106.734L209.818 106.885L210.067 106.778L238.026 94.875L238.287 94.7637L238.325 94.4824L239.265 87.5654L249.48 87.5029L248.855 103.46Z" stroke="black"/>
<path d="M253.499 230.5V259.5H246.99L243.562 230.5H253.499Z" stroke="black"/>
<path d="M241.273 257H256V267H232C232 264.348 232.977 261.804 234.716 259.929C236.455 258.054 238.814 257 241.273 257Z" fill="#2F2E41"/>
<path d="M283.453 256.804L276.847 257.458L270.61 229.544L280.686 228.547L283.453 256.804Z" stroke="black"/>
<path d="M270.954 256.485L285.71 255.032L286.625 264.322L262.579 266.691C262.459 265.471 262.58 264.239 262.936 263.066C263.292 261.892 263.875 260.801 264.653 259.853C265.431 258.906 266.387 258.12 267.468 257.542C268.55 256.965 269.734 256.605 270.954 256.485Z" fill="#2F2E41"/>
<path d="M256.5 55C265.061 55 272 48.0604 272 39.5C272 30.9396 265.061 24 256.5 24C247.94 24 241 30.9396 241 39.5C241 48.0604 247.94 55 256.5 55Z" fill="#FF5031"/>
<path d="M244.954 254C244.297 254.002 243.661 253.769 243.158 253.342C242.654 252.916 242.316 252.323 242.202 251.668C238.247 229.455 225.319 156.821 225.01 154.809C225.003 154.763 225 154.716 225 154.669V149.253C225 149.056 225.061 148.864 225.174 148.703L226.882 146.283C226.963 146.167 227.07 146.071 227.193 146.002C227.317 145.934 227.454 145.895 227.595 145.889C237.332 145.427 269.22 144.074 270.76 146.021C272.307 147.978 271.761 153.908 271.635 155.077L271.641 155.199L285.968 247.896C286.08 248.635 285.9 249.389 285.466 249.995C285.033 250.601 284.381 251.01 283.652 251.134L274.704 252.625C274.038 252.734 273.355 252.596 272.78 252.239C272.206 251.881 271.777 251.326 271.572 250.675C268.804 241.728 259.525 211.629 256.309 199.982C256.289 199.908 256.243 199.845 256.179 199.803C256.116 199.761 256.04 199.743 255.965 199.754C255.89 199.765 255.822 199.803 255.772 199.861C255.723 199.919 255.697 199.993 255.698 200.07C255.858 211.172 256.247 239.498 256.38 249.281L256.395 250.335C256.401 251.048 256.142 251.738 255.67 252.267C255.198 252.797 254.546 253.128 253.844 253.195L245.216 253.988C245.128 253.996 245.04 254 244.954 254Z" fill="#2F2E41"/>
<path d="M246.682 61.4321C243.95 63.0291 242.315 65.9639 241.377 68.9503C239.64 74.4791 238.595 80.1955 238.264 85.973L237.273 103.272L225 149.133C235.637 157.983 241.773 155.972 256.091 148.733C270.41 141.493 272.046 151.146 272.046 151.146L274.909 112.125L279 69.4838C278.082 68.3964 277.043 67.4137 275.902 66.5542C272.12 63.6627 267.721 61.653 263.035 60.6764C258.349 59.6997 253.499 59.7817 248.85 60.9161L246.682 61.4321Z" fill="#47A138"/>
<path d="M283.486 110.049L246.792 122.375L246.526 122.464L246.464 122.737C246.184 123.958 245.545 125.062 244.633 125.902C243.721 126.743 242.581 127.281 241.362 127.446C240.144 127.611 238.904 127.396 237.809 126.828C236.713 126.26 235.813 125.366 235.228 124.264C234.643 123.161 234.402 121.903 234.537 120.657C234.673 119.412 235.178 118.238 235.985 117.293C236.793 116.348 237.864 115.676 239.055 115.365C240.244 115.055 241.499 115.118 242.651 115.549V115.55C242.95 115.664 243.24 115.802 243.518 115.963L243.752 116.099L243.994 115.976L271.718 101.882L271.973 101.752L271.99 101.466L272.423 94.2686L282.905 93.5342L283.486 110.049Z" stroke="black"/>
<path d="M278.22 69.8247C284.835 72.2227 286 98.2022 286 98.2022C278.218 93.8059 268.879 101 268.879 101C268.879 101 266.934 94.2057 264.599 85.4131C263.894 82.9399 263.81 80.3238 264.354 77.8081C264.898 75.2925 266.053 72.9592 267.712 71.0254C267.712 71.0254 271.605 67.4252 278.22 69.8247Z" fill="#47A138"/>
<path d="M255.652 18.8311C259.905 17.7316 263.143 19.5494 265.36 21.7002C266.47 22.7762 267.311 23.9255 267.875 24.8086C268.157 25.2493 268.368 25.6222 268.508 25.8828C268.578 26.0129 268.631 26.1149 268.665 26.1836C268.682 26.2178 268.695 26.2438 268.703 26.2607C268.707 26.2691 268.71 26.2755 268.712 26.2793C268.713 26.2811 268.714 26.2825 268.714 26.2832V26.2842L268.788 26.4434L268.945 26.5205C270.329 27.206 271.261 28.641 271.826 30.499C272.389 32.35 272.562 34.547 272.482 36.624C272.401 38.7009 272.069 40.6193 271.648 41.9072C271.433 42.562 271.212 43.0028 271.025 43.2266C270.985 43.2738 270.953 43.3019 270.932 43.3193C269.715 42.3833 268.323 42.8231 267.378 43.3525C267.02 43.5529 266.7 43.7787 266.439 43.9844L264.987 31.0381L264.932 30.5381L264.432 30.5977H264.431C264.43 30.5978 264.428 30.5984 264.426 30.5986C264.422 30.5991 264.414 30.5996 264.405 30.6006C264.387 30.6027 264.36 30.6054 264.324 30.6094C264.253 30.6173 264.147 30.6294 264.009 30.6436C263.733 30.6719 263.331 30.7101 262.829 30.752C261.825 30.8357 260.421 30.9316 258.824 30.9795C255.619 31.0755 251.681 30.9769 248.632 30.2227C246.977 29.8132 245.628 29.9721 244.543 30.4795C243.466 30.9834 242.695 31.8096 242.149 32.6602C241.927 33.0045 241.742 33.3561 241.585 33.6973C241.468 31.689 241.473 29.6749 241.606 27.666C241.779 26.152 242.99 24.528 245.376 22.9668C247.75 21.4136 251.201 19.982 255.652 18.8311Z" stroke="black"/>
<path d="M251.523 40.7972C251.395 40.7148 251.278 40.5828 251.18 40.4103C251.116 40.2873 251.066 40.1396 251.036 39.9777C251.005 39.8158 250.994 39.6436 251.003 39.473C251.009 39.3515 251.029 39.2339 251.064 39.1294C251.098 39.025 251.145 38.9366 251.2 38.871C251.345 38.7069 251.537 38.7131 251.73 38.8781L251.752 36L251.909 36.0041L251.883 39.3877L251.763 39.2433C251.625 39.0762 251.426 38.955 251.283 39.1173C251.247 39.1603 251.218 39.2177 251.196 39.2851C251.175 39.3526 251.162 39.4282 251.159 39.5061C251.153 39.6332 251.161 39.7614 251.184 39.882C251.206 40.0026 251.243 40.1127 251.291 40.205C251.461 40.516 251.713 40.6202 252 40.7155L251.972 41C251.82 40.9573 251.669 40.8894 251.523 40.7972Z" fill="black"/>
<path d="M247.563 36.9604L249.841 37.3054L249.777 37.7283L247.499 37.3833L247.563 36.9604Z" fill="black"/>
<path d="M259.207 36.9604L256.929 37.3054L256.993 37.7283L259.271 37.3833L259.207 36.9604Z" fill="black"/>
</svg>
