<svg width="146" height="32" viewBox="0 0 146 32" fill="none" xmlns="http://www.w3.org/2000/svg">
<path d="M33.1491 26.2059L35.877 6.70879C37.3967 6.55749 39.5153 6.48184 42.233 6.48184C44.6152 6.48184 46.265 6.86009 47.1822 7.61316C48.0995 8.36622 48.4213 9.72448 48.1372 11.6811C47.9318 13.0943 47.5279 14.15 46.929 14.8446C46.33 15.5427 45.4367 15.9484 44.2558 16.0585L44.2284 16.1994C46.816 16.4058 47.8668 18.1595 47.3773 21.4571C47.0761 23.4172 46.4395 24.7342 45.464 25.4116C44.4886 26.089 42.8765 26.4294 40.6277 26.4294C37.3488 26.4328 34.857 26.3572 33.1491 26.2059ZM36.2158 24.0052L40.2102 24.0327C41.747 24.0327 42.8251 23.8126 43.4446 23.369C44.0641 22.9254 44.468 22.0555 44.6529 20.7556C44.8411 19.363 44.6939 18.4242 44.2182 17.9428C43.739 17.4614 42.743 17.2138 41.2233 17.1932H37.1742L36.2158 24.0052ZM37.4822 15.0166H41.3636C42.7122 15.0166 43.6842 14.7896 44.2764 14.3391C44.8685 13.8887 45.2552 13.0393 45.4435 11.7945C45.6112 10.6082 45.4606 9.82764 44.9917 9.44939C44.5228 9.07458 43.5576 8.88545 42.0961 8.88545H38.3277L37.4822 15.0166Z" fill="#47A138"/>
<path d="M60.3768 12.417H63.2177C62.2046 16.9009 60.8834 20.6972 59.2508 23.8057C57.7893 26.5945 56.338 28.5717 54.9039 29.7408C53.4698 30.91 51.7584 31.663 49.7698 32L49.2633 30.0503C50.4646 29.7683 51.512 29.3454 52.4122 28.778C53.3123 28.2141 54.1749 27.3544 54.9997 26.2059H53.7333C53.3021 26.2059 52.9358 26.089 52.6381 25.8517C52.3369 25.6179 52.1486 25.2912 52.0767 24.8752L49.4344 12.4135H52.3061L54.3871 23.5753C54.4418 23.8951 54.6301 24.0568 54.9484 24.0568H56.3278C56.4031 23.9261 56.5057 23.7301 56.6358 23.4791C56.7659 23.2246 56.8514 23.0595 56.8891 22.9839C58.5388 19.5384 59.7026 16.0172 60.3768 12.417Z" fill="#47A138"/>
<path d="M68.8138 14.5351L67.7151 22.2789C67.6227 22.9392 67.6809 23.3862 67.8965 23.62C68.1122 23.8573 68.5469 23.9742 69.204 23.9742H71.2577L71.3706 26.0924C70.5457 26.3365 69.4778 26.4603 68.1635 26.4603C66.945 26.4603 66.0688 26.1199 65.5349 25.4425C65.0009 24.7651 64.8161 23.7954 64.9872 22.5334L66.1133 14.5351H63.6113L63.8646 12.5579L66.4248 12.4169L67.0169 8.37651H69.69L69.1287 12.4169H73.3489L73.0683 14.5351H68.8138Z" fill="#47A138"/>
<path d="M84.6508 23.9192L84.8185 25.7554C83.4871 26.2816 81.6011 26.5463 79.1642 26.5463C76.8196 26.5463 75.1972 25.9308 74.297 24.6963C73.3969 23.4619 73.1162 21.5465 73.4516 18.9469C73.8076 16.2923 74.5332 14.4767 75.6319 13.507C76.7272 12.5373 78.5344 12.0525 81.0467 12.0525C83.1859 12.0525 84.6371 12.4307 85.4072 13.1838C86.1773 13.9368 86.458 15.0475 86.2526 16.5193C86.0267 17.8569 85.503 18.8231 84.6782 19.4146C83.8533 20.0095 82.5869 20.3705 80.8824 20.5012L76.1282 20.9242C76.1077 22.224 76.3815 23.1043 76.9428 23.565C77.5041 24.0258 78.3872 24.2562 79.5852 24.2562C80.8618 24.2562 82.5492 24.1462 84.6508 23.9192ZM76.2959 18.8885L80.8824 18.4655C81.7449 18.4105 82.3747 18.2248 82.7683 17.9153C83.1619 17.6059 83.4152 17.0626 83.5281 16.2889C83.6411 15.4051 83.4939 14.8584 83.0934 14.6486C82.6896 14.4423 81.8715 14.3392 80.6325 14.3392C79.2087 14.3392 78.1989 14.6349 77.6102 15.2298C77.0147 15.8212 76.5766 17.0419 76.2959 18.8885Z" fill="#47A138"/>
<path d="M92.5538 6.42682L91.794 12.135C91.6263 13.3798 91.3799 14.432 91.0615 15.2985C91.9617 14.3942 92.9509 13.6308 94.029 13.0084C95.1072 12.386 96.1066 12.0765 97.0239 12.0765C98.1123 12.0765 98.9475 12.2794 99.5259 12.6851C100.108 13.0909 100.519 13.844 100.765 14.9443C101.008 16.0447 100.97 17.5577 100.652 19.4799C100.447 21.0239 100.156 22.2824 99.7792 23.2521C99.4027 24.2218 98.9167 24.9439 98.3177 25.415C97.7187 25.8861 97.1095 26.1956 96.49 26.3469C95.8705 26.4982 95.073 26.5738 94.1009 26.5738C91.8145 26.5738 89.5076 26.2334 87.1802 25.556L89.8533 6.42682H92.5538ZM91.0068 17.4477L90.0792 24.2287C91.4278 24.2837 92.4306 24.3146 93.0878 24.3146C94.8676 24.3146 96.0416 24.0292 96.6029 23.4515C97.1643 22.8773 97.5955 21.4881 97.8967 19.2839C98.1603 17.231 98.1876 15.9106 97.9823 15.326C97.7769 14.7415 97.243 14.4492 96.3804 14.4492C95.049 14.4526 93.2589 15.4498 91.0068 17.4477Z" fill="#47A138"/>
<path d="M114.213 26.2059H112.074L112.187 23.6613C110.537 25.5835 108.569 26.5429 106.279 26.5429C104.609 26.5429 103.486 25.9962 102.904 24.9027C102.322 23.8092 102.22 21.887 102.596 19.1395C102.801 17.6128 103.092 16.3645 103.469 15.3948C103.845 14.4251 104.342 13.703 104.961 13.2319C105.581 12.7608 106.217 12.4445 106.875 12.2863C107.532 12.1281 108.374 12.0456 109.407 12.0456C111.639 12.0456 113.881 12.2897 116.13 12.7815L114.213 26.2059ZM112.159 21.2336L113.145 14.3942C111.42 14.3564 110.455 14.3392 110.249 14.3392C109.274 14.3392 108.535 14.3873 108.028 14.4802C107.521 14.573 107.076 14.8137 106.693 15.2023C106.31 15.5874 106.026 16.0826 105.848 16.6843C105.67 17.2861 105.495 18.1733 105.327 19.339C105.064 21.3918 105.033 22.7123 105.228 23.2934C105.427 23.878 105.964 24.1702 106.847 24.1702C107.71 24.1702 108.552 23.9295 109.38 23.4481C110.198 22.9736 111.129 22.2343 112.159 21.2336Z" fill="#47A138"/>
<path d="M121.301 12.417L121.161 15.3845C123.636 13.1632 125.802 12.049 127.657 12.049C128.821 12.049 129.701 12.3826 130.3 13.0531C130.899 13.7237 131.104 14.6796 130.919 15.921L129.458 26.2059H126.757L128.078 16.5984C128.191 15.7318 128.157 15.1438 127.979 14.8309C127.801 14.5214 127.411 14.3632 126.812 14.3632C126.042 14.3632 125.241 14.6005 124.406 15.0682C123.571 15.5393 122.479 16.313 121.13 17.3858L119.922 26.2025H117.194L119.135 12.4135H121.301V12.417Z" fill="#47A138"/>
<path d="M142.902 12.4169H145.688C144.901 14.8859 143.381 16.9284 141.133 18.548C141.413 18.9813 141.694 19.528 141.978 20.1883L144.651 26.2059H141.725L139.082 19.8478C138.237 20.3017 137.152 20.8278 135.82 21.4296L135.119 26.2059H132.418L135.174 6.42682H137.901L136.662 15.694C136.495 16.8253 136.194 17.9531 135.762 19.0845C137.542 18.2351 139.086 17.2448 140.39 16.1032C141.687 14.965 142.526 13.7374 142.902 12.4169Z" fill="#47A138"/>
<path d="M20.1667 6.53688H6.69142V20.0748H20.1667V6.53688Z" fill="#47A138"/>
<path d="M6.64694 0H0.0924282V6.49216H6.64694V0Z" fill="#47A138"/>
<path d="M26.5809 0H20.1188V6.49216H26.5809V0Z" fill="#47A138"/>
<path d="M33.1491 26.2059L35.877 6.70879C37.3967 6.55749 39.5154 6.48184 42.233 6.48184C44.6152 6.48184 46.265 6.86009 47.1823 7.61316C48.0995 8.36622 48.4213 9.72448 48.1372 11.6811C47.9318 13.0943 47.5279 14.15 46.929 14.8446C46.33 15.5427 45.4367 15.9484 44.2558 16.0585L44.2284 16.1994C46.816 16.4058 47.8668 18.1595 47.3774 21.4571C47.0762 23.4172 46.4395 24.7342 45.464 25.4116C44.4886 26.089 42.8765 26.4294 40.6277 26.4294C37.3488 26.4328 34.857 26.3572 33.1491 26.2059ZM36.2159 24.0052L40.2102 24.0327C41.747 24.0327 42.8251 23.8126 43.4446 23.369C44.0642 22.9254 44.468 22.0555 44.6529 20.7556C44.8411 19.363 44.6939 18.4242 44.2182 17.9428C43.739 17.4614 42.743 17.2138 41.2233 17.1932H37.1742L36.2159 24.0052ZM37.4823 15.0166H41.3636C42.7122 15.0166 43.6842 14.7896 44.2764 14.3391C44.8685 13.8887 45.2553 13.0393 45.4435 11.7945C45.6112 10.6082 45.4606 9.82764 44.9917 9.44939C44.5228 9.07458 43.5576 8.88545 42.0961 8.88545H38.3277L37.4823 15.0166Z" fill="#47A138"/>
<path d="M60.3769 12.417H63.2177C62.2046 16.9009 60.8834 20.6972 59.2508 23.8057C57.7893 26.5945 56.338 28.5717 54.9039 29.7408C53.4698 30.91 51.7584 31.663 49.7698 32L49.2633 30.0503C50.4646 29.7683 51.512 29.3454 52.4122 28.778C53.3124 28.2141 54.1749 27.3544 54.9998 26.2059H53.7333C53.3021 26.2059 52.9359 26.089 52.6381 25.8517C52.3369 25.6179 52.1486 25.2912 52.0767 24.8752L49.4344 12.4135H52.3061L54.3871 23.5753C54.4419 23.8951 54.6301 24.0568 54.9484 24.0568H56.3278C56.4031 23.9261 56.5057 23.7301 56.6358 23.4791C56.7659 23.2246 56.8514 23.0595 56.8891 22.9839C58.5388 19.5384 59.7026 16.0172 60.3769 12.417Z" fill="#47A138"/>
<path d="M68.8138 14.5351L67.7152 22.2789C67.6227 22.9392 67.6809 23.3862 67.8966 23.62C68.1122 23.8573 68.5469 23.9742 69.204 23.9742H71.2577L71.3706 26.0924C70.5457 26.3365 69.4779 26.4603 68.1635 26.4603C66.945 26.4603 66.0688 26.1199 65.5349 25.4425C65.0009 24.7651 64.8161 23.7954 64.9872 22.5334L66.1133 14.5351H63.6113L63.8646 12.5579L66.4248 12.4169L67.0169 8.37651H69.6901L69.1287 12.4169H73.3489L73.0683 14.5351H68.8138Z" fill="#47A138"/>
<path d="M84.6508 23.9192L84.8185 25.7554C83.4871 26.2816 81.6011 26.5463 79.1642 26.5463C76.8196 26.5463 75.1972 25.9308 74.2971 24.6963C73.3969 23.4619 73.1162 21.5465 73.4516 18.9469C73.8076 16.2923 74.5332 14.4767 75.6319 13.507C76.7272 12.5373 78.5344 12.0525 81.0467 12.0525C83.1859 12.0525 84.6371 12.4307 85.4072 13.1838C86.1773 13.9368 86.458 15.0475 86.2526 16.5193C86.0267 17.8569 85.503 18.8231 84.6782 19.4146C83.8533 20.0095 82.5869 20.3705 80.8824 20.5012L76.1282 20.9242C76.1077 22.224 76.3815 23.1043 76.9428 23.565C77.5041 24.0258 78.3872 24.2562 79.5852 24.2562C80.8618 24.2562 82.5492 24.1462 84.6508 23.9192ZM76.2959 18.8885L80.8824 18.4655C81.7449 18.4105 82.3747 18.2248 82.7683 17.9153C83.1619 17.6059 83.4152 17.0626 83.5281 16.2889C83.6411 15.4051 83.4939 14.8584 83.0935 14.6486C82.6896 14.4423 81.8715 14.3392 80.6325 14.3392C79.2087 14.3392 78.199 14.6349 77.6102 15.2298C77.0147 15.8212 76.5766 17.0419 76.2959 18.8885Z" fill="#47A138"/>
<path d="M92.5539 6.42682L91.794 12.135C91.6263 13.3798 91.3799 14.432 91.0616 15.2985C91.9617 14.3942 92.9509 13.6308 94.0291 13.0084C95.1072 12.386 96.1066 12.0765 97.0239 12.0765C98.1124 12.0765 98.9475 12.2794 99.5259 12.6851C100.108 13.0909 100.519 13.844 100.765 14.9443C101.008 16.0447 100.97 17.5577 100.652 19.4799C100.447 21.0239 100.156 22.2824 99.7792 23.2521C99.4027 24.2218 98.9167 24.9439 98.3177 25.415C97.7187 25.8861 97.1095 26.1956 96.49 26.3469C95.8705 26.4982 95.073 26.5738 94.1009 26.5738C91.8145 26.5738 89.5076 26.2334 87.1802 25.556L89.8533 6.42682H92.5539ZM91.0068 17.4477L90.0792 24.2287C91.4278 24.2837 92.4306 24.3146 93.0878 24.3146C94.8676 24.3146 96.0416 24.0292 96.6029 23.4515C97.1643 22.8773 97.5955 21.4881 97.8967 19.2839C98.1603 17.231 98.1877 15.9106 97.9823 15.326C97.7769 14.7415 97.243 14.4492 96.3805 14.4492C95.049 14.4526 93.2589 15.4498 91.0068 17.4477Z" fill="#47A138"/>
<path d="M114.213 26.2059H112.074L112.187 23.6613C110.537 25.5835 108.569 26.5429 106.279 26.5429C104.609 26.5429 103.486 25.9962 102.904 24.9027C102.322 23.8092 102.22 21.887 102.596 19.1395C102.801 17.6128 103.092 16.3645 103.469 15.3948C103.845 14.4251 104.342 13.703 104.961 13.2319C105.581 12.7608 106.217 12.4445 106.875 12.2863C107.532 12.1281 108.374 12.0456 109.407 12.0456C111.639 12.0456 113.881 12.2897 116.13 12.7815L114.213 26.2059ZM112.159 21.2336L113.145 14.3942C111.42 14.3564 110.455 14.3392 110.249 14.3392C109.274 14.3392 108.535 14.3873 108.028 14.4802C107.521 14.573 107.076 14.8137 106.693 15.2023C106.31 15.5874 106.026 16.0826 105.848 16.6843C105.67 17.2861 105.495 18.1733 105.327 19.339C105.064 21.3918 105.033 22.7123 105.228 23.2934C105.427 23.878 105.964 24.1702 106.847 24.1702C107.71 24.1702 108.552 23.9295 109.38 23.4481C110.198 22.9736 111.129 22.2343 112.159 21.2336Z" fill="#47A138"/>
<path d="M121.301 12.417L121.161 15.3845C123.636 13.1632 125.802 12.049 127.657 12.049C128.821 12.049 129.701 12.3826 130.3 13.0531C130.899 13.7237 131.104 14.6796 130.919 15.921L129.458 26.2059H126.757L128.078 16.5984C128.191 15.7318 128.157 15.1438 127.979 14.8309C127.801 14.5214 127.411 14.3632 126.812 14.3632C126.042 14.3632 125.241 14.6005 124.406 15.0682C123.571 15.5393 122.479 16.313 121.13 17.3858L119.922 26.2025H117.194L119.135 12.4135H121.301V12.417Z" fill="#47A138"/>
<path d="M142.902 12.4169H145.688C144.901 14.8859 143.381 16.9284 141.133 18.548C141.413 18.9813 141.694 19.528 141.978 20.1883L144.651 26.2059H141.725L139.082 19.8478C138.237 20.3017 137.152 20.8278 135.82 21.4296L135.119 26.2059H132.418L135.174 6.42682H137.902L136.662 15.694C136.495 16.8253 136.194 17.9531 135.762 19.0845C137.542 18.2351 139.086 17.2448 140.39 16.1032C141.687 14.965 142.526 13.7374 142.902 12.4169Z" fill="#47A138"/>
<path d="M13.4753 20.03H0V26.8007H13.4753V20.03Z" fill="#47A138"/>
<path d="M20.1667 6.53688H6.69143V20.0748H20.1667V6.53688Z" fill="#47A138"/>
<path d="M6.64694 0H0.0924282V6.49216H6.64694V0Z" fill="#47A138"/>
<path d="M26.5809 0H20.1188V6.49216H26.5809V0Z" fill="#47A138"/>
</svg>
