<svg width="473" height="354" viewBox="0 0 473 354" fill="none" xmlns="http://www.w3.org/2000/svg">
<path d="M462.023 207.017C511.656 261.906 367.777 341.009 251.52 341.009C135.262 341.009 54.8303 279.718 41.017 207.017C7.52441 30.7407 326.382 -81.2995 251.52 73.0245C142.4 297.97 422.935 163.791 462.023 207.017Z" fill="#E6E6E6"/>
<path d="M439.753 220.008C489.387 274.897 345.508 354 229.251 354C112.993 354 32.561 292.709 18.7477 220.008C-14.7449 43.7314 304.112 -68.3087 229.251 86.0152C120.131 310.96 400.666 176.781 439.753 220.008Z" fill="#3F3D56"/>
<path d="M42.3498 72.5469C42.5693 72.5212 42.7914 72.538 43.0041 72.5977C43.1652 72.6429 43.3187 72.711 43.4592 72.8008L43.5959 72.8984L43.7219 73.0078C43.8021 73.085 43.8742 73.1703 43.9377 73.2617L44.0266 73.4033L44.1008 73.5527C44.1452 73.6549 44.1789 73.7613 44.2024 73.8701L44.2297 74.0352L44.2404 74.2021C44.243 74.3689 44.2204 74.5354 44.174 74.6963C44.1122 74.911 44.0089 75.1118 43.8694 75.2861C43.7297 75.4605 43.5564 75.6056 43.3606 75.7129C43.1665 75.8192 42.9534 75.8847 42.7336 75.9092L42.7346 75.9111C30.8145 77.2739 21.1655 79.3451 14.4895 81.832C11.1473 83.077 8.60366 84.4063 6.89767 85.7646C5.18009 87.1323 4.44184 88.4194 4.39084 89.5742C4.34596 90.5927 4.78404 91.7147 5.86545 92.9443C6.94952 94.177 8.62049 95.4455 10.8684 96.7168C15.3611 99.2577 21.9629 101.701 30.1877 103.89C46.6215 108.262 69.3295 111.562 94.0852 112.651C118.841 113.74 141.751 112.448 158.506 109.535C166.891 108.077 173.682 106.222 178.381 104.086C180.732 103.017 182.508 101.9 183.697 100.768C184.882 99.6376 185.416 98.5585 185.461 97.54C185.512 96.3797 184.886 95.0278 183.284 93.5088C181.694 92.0002 179.262 90.4464 176.021 88.9082C169.548 85.836 160.058 82.9191 148.229 80.5127V80.5137C148.01 80.4699 147.802 80.3829 147.617 80.2588C147.432 80.1346 147.273 79.9747 147.15 79.7891C147.026 79.6035 146.941 79.3954 146.899 79.1768C146.856 78.958 146.857 78.733 146.902 78.5146L146.943 78.3525C146.992 78.1937 147.064 78.0425 147.157 77.9043L147.258 77.7705C147.364 77.6424 147.49 77.5304 147.629 77.4385L147.773 77.3535C147.92 77.2761 148.078 77.2209 148.242 77.1895L148.407 77.166C148.572 77.151 148.738 77.1602 148.901 77.1934C161.536 79.7636 171.499 82.8407 178.288 86.2178C181.68 87.905 184.335 89.6932 186.132 91.5742C187.933 93.4594 188.943 95.5144 188.847 97.6895C188.688 101.298 185.523 104.268 180.731 106.661C175.856 109.095 168.92 111.128 160.437 112.7C143.453 115.847 120.039 117.184 93.9358 116.035C67.8331 114.887 44.6275 111.499 27.9865 106.873C19.6743 104.562 12.9437 101.928 8.30197 99.0752C3.7384 96.2703 0.847253 93.0342 1.00607 89.4258C1.10157 87.2587 2.28089 85.3068 4.22971 83.5918C6.17436 81.8804 8.9588 80.3347 12.4651 78.9541C19.4826 76.191 29.6162 74.0015 42.3498 72.5459V72.5469Z" fill="#47A138" stroke="#47A138" stroke-width="2"/>
<path d="M47.553 116.96C51.9109 125.241 58.3663 132.232 66.2734 137.234C74.1806 142.236 83.2621 145.072 92.6094 145.46C101.957 145.849 111.242 143.774 119.536 139.445C127.831 135.117 134.843 128.685 139.872 120.793C109.052 121.209 78.2325 119.929 47.553 116.96Z" fill="#47A138"/>
<path d="M145.638 106.209C148.254 98.342 149.008 89.9729 147.84 81.7636C146.672 73.5544 143.614 65.7305 138.908 58.9109C134.203 52.0914 127.978 46.4635 120.728 42.4727C113.477 38.4819 105.4 36.2377 97.1349 35.9177C88.8698 35.5977 80.6438 37.2108 73.108 40.6291C65.5722 44.0475 58.9335 49.1774 53.7172 55.6127C48.5009 62.0481 44.8502 69.6124 43.0541 77.7068C41.258 85.8013 41.3658 94.2038 43.3689 102.249C77.1445 107.998 111.521 109.328 145.638 106.209Z" fill="#47A138"/>
<path d="M107.226 70.4973C110.664 70.4973 113.451 67.7101 113.451 64.2718C113.451 60.8336 110.664 58.0464 107.226 58.0464C103.787 58.0464 101 60.8336 101 64.2718C101 67.7101 103.787 70.4973 107.226 70.4973Z" fill="white"/>
<path d="M75.1875 94.7918C80.8899 94.7918 85.5126 90.1011 85.5126 84.3149C85.5126 78.5286 80.8899 73.8379 75.1875 73.8379C69.4851 73.8379 64.8624 78.5286 64.8624 84.3149C64.8624 90.1011 69.4851 94.7918 75.1875 94.7918Z" fill="white"/>
<path d="M73.2943 212.905C74.8317 212.905 76.078 211.659 76.078 210.122C76.078 208.584 74.8317 207.338 73.2943 207.338C71.7569 207.338 70.5106 208.584 70.5106 210.122C70.5106 211.659 71.7569 212.905 73.2943 212.905Z" fill="#E6E6E6"/>
<path d="M267.771 321.135C269.309 321.135 270.555 319.889 270.555 318.351C270.555 316.814 269.309 315.567 267.771 315.567C266.234 315.567 264.987 316.814 264.987 318.351C264.987 319.889 266.234 321.135 267.771 321.135Z" fill="#E6E6E6"/>
<path d="M95.1031 179.873C95.8718 179.873 96.495 179.25 96.495 178.481C96.495 177.713 95.8718 177.089 95.1031 177.089C94.3344 177.089 93.7112 177.713 93.7112 178.481C93.7112 179.25 94.3344 179.873 95.1031 179.873Z" fill="#E6E6E6"/>
<path d="M201.809 263.012C202.577 263.012 203.201 262.389 203.201 261.62C203.201 260.851 202.577 260.228 201.809 260.228C201.04 260.228 200.417 260.851 200.417 261.62C200.417 262.389 201.04 263.012 201.809 263.012Z" fill="#E6E6E6"/>
<path d="M390.585 249.416C391.353 249.416 391.976 248.792 391.976 248.024C391.976 247.255 391.353 246.632 390.585 246.632C389.816 246.632 389.193 247.255 389.193 248.024C389.193 248.792 389.816 249.416 390.585 249.416Z" fill="#E6E6E6"/>
<path d="M345.634 290.849C346.402 290.849 347.025 290.226 347.025 289.457C347.025 288.689 346.402 288.065 345.634 288.065C344.865 288.065 344.242 288.689 344.242 289.457C344.242 290.226 344.865 290.849 345.634 290.849Z" fill="#E6E6E6"/>
<path d="M180.134 197.486C180.903 197.486 181.526 196.863 181.526 196.095C181.526 195.326 180.903 194.703 180.134 194.703C179.365 194.703 178.742 195.326 178.742 196.095C178.742 196.863 179.365 197.486 180.134 197.486Z" fill="#E6E6E6"/>
<path d="M191.066 129.462C191.834 129.462 192.458 128.839 192.458 128.07C192.458 127.301 191.834 126.678 191.066 126.678C190.297 126.678 189.674 127.301 189.674 128.07C189.674 128.839 190.297 129.462 191.066 129.462Z" fill="#E6E6E6"/>
<path d="M200.416 34.7491C201.185 34.7491 201.808 34.1259 201.808 33.3572C201.808 32.5885 201.185 31.9653 200.416 31.9653C199.648 31.9653 199.025 32.5885 199.025 33.3572C199.025 34.1259 199.648 34.7491 200.416 34.7491Z" fill="#E6E6E6"/>
<path d="M197.747 336.269C198.516 336.269 199.139 335.645 199.139 334.877C199.139 334.108 198.516 333.485 197.747 333.485C196.979 333.485 196.356 334.108 196.356 334.877C196.356 335.645 196.979 336.269 197.747 336.269Z" fill="#E6E6E6"/>
<path d="M125.257 294.561C126.026 294.561 126.649 293.937 126.649 293.169C126.649 292.4 126.026 291.777 125.257 291.777C124.488 291.777 123.865 292.4 123.865 293.169C123.865 293.937 124.488 294.561 125.257 294.561Z" fill="#E6E6E6"/>
<path d="M342.849 244.454C343.618 244.454 344.241 243.831 344.241 243.062C344.241 242.293 343.618 241.67 342.849 241.67C342.08 241.67 341.457 242.293 341.457 243.062C341.457 243.831 342.08 244.454 342.849 244.454Z" fill="#E6E6E6"/>
<path d="M93.1045 140.648C96.6266 140.648 99.4818 137.86 99.4818 134.422C99.4818 130.984 96.6266 128.197 93.1045 128.197C89.5824 128.197 86.7272 130.984 86.7272 134.422C86.7272 137.86 89.5824 140.648 93.1045 140.648Z" fill="white"/>
<path d="M403.402 164.189L382.217 146.738C383.475 144.292 384.23 141.618 384.436 138.875C384.642 136.132 384.295 133.375 383.416 130.768C382.537 128.162 381.144 125.758 379.319 123.699C377.494 121.641 375.274 119.97 372.792 118.785C368.119 116.573 362.785 116.196 357.848 117.73C352.91 119.263 348.729 122.595 346.132 127.065C343.744 131.205 342.873 136.046 343.669 140.758C344.464 145.47 346.876 149.757 350.49 152.883C354.104 156.009 358.694 157.778 363.471 157.887C368.248 157.995 372.914 156.436 376.666 153.477L397.851 170.928C398.745 171.664 399.894 172.014 401.046 171.903C402.198 171.791 403.258 171.226 403.994 170.333C404.73 169.44 405.081 168.291 404.97 167.139C404.859 165.987 404.295 164.926 403.402 164.189ZM375.281 146.681C373.119 149.306 370.113 151.1 366.777 151.757C363.44 152.415 359.978 151.895 356.982 150.286C353.986 148.677 351.64 146.079 350.344 142.935C349.048 139.791 348.883 136.294 349.876 133.042C350.869 129.789 352.96 126.981 355.791 125.097C358.622 123.213 362.019 122.369 365.403 122.708C368.787 123.048 371.948 124.55 374.349 126.959C376.749 129.368 378.24 132.535 378.567 135.921C378.755 137.842 378.562 139.782 377.998 141.629C377.434 143.475 376.511 145.192 375.281 146.681Z" fill="#47A138"/>
<path d="M423.325 133.069C417.032 133.069 411.93 127.968 411.93 121.674C411.93 115.381 417.032 110.279 423.325 110.279C429.619 110.279 434.721 115.381 434.721 121.674C434.721 127.968 429.619 133.069 423.325 133.069Z" fill="#FF5031"/>
<path d="M416.935 127.383C416.578 127.28 416.252 127.114 415.979 126.897C415.798 126.743 415.66 126.557 415.575 126.354C415.49 126.151 415.459 125.935 415.485 125.721C415.5 125.568 415.558 125.42 415.653 125.289C415.749 125.158 415.879 125.047 416.035 124.965C416.439 124.759 416.973 124.767 417.512 124.974L417.574 121.36L418.012 121.366L417.939 125.613L417.606 125.432C417.219 125.222 416.664 125.07 416.264 125.274C416.166 125.328 416.083 125.4 416.023 125.485C415.964 125.569 415.928 125.664 415.92 125.762C415.902 125.922 415.925 126.083 415.988 126.234C416.052 126.385 416.153 126.524 416.287 126.639C416.762 127.03 417.464 127.161 418.266 127.28L418.188 127.638C417.762 127.584 417.343 127.499 416.935 127.383Z" fill="black"/>
<path d="M412.065 122.149L414.764 122.558L414.688 123.059L411.989 122.65L412.065 122.149Z" fill="black"/>
<path d="M425.862 122.149L423.162 122.558L423.238 123.059L425.938 122.65L425.862 122.149Z" fill="black"/>
<path d="M393.317 145.008C392.532 144.595 391.639 144.432 390.759 144.539C389.878 144.646 389.05 145.019 388.386 145.607C387.722 146.196 387.254 146.973 387.042 147.835C386.83 148.697 386.885 149.603 387.201 150.433C387.517 151.262 388.078 151.975 388.81 152.478C389.541 152.98 390.408 153.249 391.295 153.247C392.182 153.245 393.048 152.973 393.777 152.467L394.008 152.307L394.265 152.42L418.212 162.991C418.848 163.272 419.557 163.339 420.234 163.182C420.911 163.025 421.519 162.652 421.967 162.12L428.034 154.907L422.098 150.239L418.416 153.843L418.21 154.045L417.932 153.968L395.763 147.808L395.506 147.736L395.422 147.482C395.35 147.265 395.261 147.053 395.156 146.849C394.744 146.063 394.103 145.42 393.317 145.008Z" stroke="black"/>
<path d="M418.845 153.847L427.166 160.323C427.403 160.508 427.676 160.639 427.968 160.708C428.26 160.777 428.564 160.782 428.858 160.723C429.152 160.664 429.43 160.543 429.673 160.367C429.916 160.191 430.118 159.964 430.266 159.703L435.437 150.551C436.374 149.334 436.789 147.796 436.593 146.273C436.397 144.75 435.604 143.368 434.39 142.429C433.176 141.489 431.639 141.07 430.116 141.262C428.593 141.454 427.208 142.243 426.266 143.455L418.685 150.689C418.468 150.897 418.299 151.148 418.188 151.427C418.077 151.706 418.027 152.005 418.042 152.305C418.057 152.604 418.137 152.897 418.275 153.163C418.414 153.429 418.608 153.663 418.845 153.847V153.847Z" fill="#47A138"/>
<path d="M407.848 228.417L410.431 249.356H415.176L415.177 228.417H407.848Z" stroke="black"/>
<path d="M417.127 247.999L405.925 247.999H405.925C404.987 247.999 404.059 248.184 403.193 248.542C402.327 248.901 401.54 249.427 400.877 250.09C400.214 250.753 399.688 251.54 399.329 252.406C398.971 253.272 398.786 254.2 398.786 255.137V255.369L417.126 255.37L417.127 247.999Z" fill="#DEE9EA"/>
<path d="M393.001 227.025L395.584 247.964H400.33L400.331 227.025H393.001Z" stroke="black"/>
<path d="M402.28 246.607L391.079 246.607H391.078C390.141 246.607 389.212 246.792 388.346 247.15C387.48 247.509 386.693 248.035 386.03 248.698C385.368 249.361 384.842 250.147 384.483 251.014C384.124 251.88 383.94 252.808 383.94 253.745V253.977L402.28 253.978L402.28 246.607Z" fill="#DEE9EA"/>
<path d="M441.189 198.374C439.977 201.966 437.678 205.093 434.611 207.322C431.544 209.55 427.86 210.77 424.069 210.813L423.782 210.817C420.845 210.901 417.398 209.954 414.015 208.595C407.335 205.909 400.918 201.608 399.216 200.425L402.101 228.164L403.27 239.41C403.3 239.701 403.268 239.995 403.177 240.273C403.086 240.551 402.938 240.807 402.742 241.024C402.546 241.241 402.307 241.415 402.04 241.534C401.773 241.654 401.484 241.716 401.192 241.716H393.987C393.525 241.717 393.076 241.564 392.71 241.282C392.344 241 392.081 240.604 391.964 240.157L380.068 194.853C379.711 193.497 379.683 192.075 379.985 190.706C380.286 189.337 380.91 188.059 381.803 186.978C382.697 185.898 383.835 185.046 385.124 184.492C386.412 183.939 387.814 183.701 389.213 183.797L413.923 185.49L412.197 178.587L434.253 177.121L434.318 177.167C434.847 177.552 435.362 177.956 435.853 178.378C437.083 179.418 438.173 180.612 439.097 181.932C440.748 184.299 441.802 187.032 442.166 189.895C442.531 192.759 442.195 195.668 441.189 198.374Z" fill="#2F2E41"/>
<path d="M441.189 198.374C439.977 201.967 437.678 205.094 434.611 207.322C431.544 209.55 427.86 210.77 424.069 210.813C420.444 208.978 416.946 206.903 413.598 204.601L414.015 208.595L417.653 243.586C417.682 243.877 417.651 244.171 417.56 244.449C417.469 244.727 417.321 244.983 417.125 245.2C416.929 245.417 416.69 245.591 416.423 245.71C416.156 245.83 415.867 245.891 415.574 245.892H408.369C407.907 245.892 407.458 245.74 407.092 245.458C406.726 245.176 406.464 244.78 406.346 244.333L402.101 228.165L394.451 199.029C394.094 197.673 394.065 196.251 394.367 194.882C394.669 193.512 395.292 192.235 396.186 191.154C397.08 190.074 398.218 189.222 399.506 188.668C400.795 188.115 402.196 187.877 403.595 187.973L428.305 189.666L426.579 182.763L439.097 181.932C440.748 184.3 441.802 187.032 442.166 189.896C442.531 192.759 442.195 195.669 441.189 198.374Z" fill="#2F2E41"/>
<path d="M435.886 179.978L436.052 179.958L439.9 161.036C439.933 160.872 443.079 144.551 433.434 136.018L433.266 134.85C433.223 134.551 433.116 134.265 432.952 134.012C432.788 133.759 432.57 133.544 432.315 133.383C432.06 133.221 431.773 133.117 431.473 133.078C431.174 133.038 430.87 133.064 430.581 133.153L421.495 135.972C420.981 136.13 420.548 136.481 420.287 136.952C420.025 137.423 419.957 137.976 420.094 138.496L420.978 141.856C419.753 143.294 405.336 160.652 410.358 174.024L412.607 182.817L435.886 179.978Z" fill="#47A138"/>
<path d="M421.852 159.619L432.31 160.966C432.607 161.004 432.91 160.978 433.196 160.889C433.483 160.8 433.746 160.65 433.97 160.45C434.193 160.249 434.371 160.003 434.491 159.728C434.61 159.453 434.669 159.155 434.664 158.856L434.464 148.345C434.652 146.821 434.228 145.286 433.284 144.074C432.341 142.863 430.956 142.075 429.433 141.884C427.91 141.692 426.374 142.112 425.16 143.052C423.946 143.992 423.154 145.375 422.959 146.897L420.109 156.981C420.028 157.269 420.009 157.572 420.055 157.869C420.102 158.165 420.211 158.448 420.376 158.699C420.542 158.949 420.759 159.161 421.014 159.319C421.268 159.478 421.554 159.58 421.852 159.619Z" fill="#47A138"/>
<path d="M431.31 103.863C429.659 103.686 428.217 103.884 427.188 104.127C426.674 104.248 426.265 104.38 425.987 104.48C425.848 104.531 425.741 104.573 425.671 104.603C425.636 104.617 425.61 104.628 425.594 104.636C425.586 104.639 425.58 104.642 425.576 104.644C425.575 104.644 425.574 104.645 425.573 104.646V104.645L425.462 104.697L425.338 104.691C421.349 104.502 418.53 105.345 416.531 106.672C414.532 108 413.309 109.844 412.568 111.733C411.825 113.627 411.57 115.554 411.503 117.015C411.47 117.743 411.484 118.352 411.506 118.776C411.51 118.862 411.518 118.941 411.523 119.011L425.108 119.628L426.384 117.303L427.001 116.178L427.308 117.425C428.683 123.027 428.154 128.141 427.286 131.849C426.852 133.703 426.332 135.21 425.919 136.255C425.864 136.394 425.81 136.523 425.759 136.646L442.76 128.727L442.602 126.004L442.519 124.558L443.476 125.645L445.045 127.423L447.117 126.281L447.424 124.531L447.516 124.003L448.036 124.132L448.915 124.35L442.211 112.185C438.765 106.053 434.582 104.216 431.31 103.863Z" stroke="black"/>
<path d="M421.478 159.834L421.403 160.113L421.125 160.188L398.903 166.153L398.645 166.222L398.444 166.046C398.271 165.895 398.086 165.756 397.891 165.633C397.137 165.167 396.259 164.942 395.374 164.986C394.487 165.03 393.635 165.342 392.931 165.882C392.227 166.422 391.704 167.164 391.431 168.008C391.159 168.853 391.151 169.761 391.407 170.611C391.663 171.46 392.171 172.212 392.865 172.765C393.558 173.319 394.403 173.648 395.289 173.709C396.174 173.771 397.058 173.562 397.821 173.109C398.584 172.656 399.192 171.982 399.562 171.175L399.679 170.92L399.958 170.887L425.954 167.816C426.644 167.734 427.288 167.431 427.792 166.952C428.295 166.472 428.629 165.843 428.744 165.158L430.302 155.861L422.818 154.86L421.478 159.834Z" stroke="black"/>
<path d="M164.906 272.397C164.801 272.089 164.624 271.811 164.39 271.586C164.303 271.506 164.21 271.434 164.11 271.37C163.318 270.842 162.133 270.723 161.38 271.37C161.304 271.436 161.234 271.508 161.171 271.586C160.946 271.862 160.715 272.133 160.478 272.397C160.09 272.84 159.692 273.268 159.276 273.684C159.157 273.8 159.039 273.918 158.917 274.034C158.848 274.103 158.778 274.17 158.708 274.237C158.441 274.492 158.167 274.738 157.891 274.981C157.745 275.112 157.599 275.239 157.451 275.364C157.229 275.549 157.007 275.734 156.783 275.913C156.761 275.929 156.74 275.944 156.719 275.962C156.713 275.965 156.71 275.971 156.704 275.974C156.701 275.974 156.698 275.974 156.694 275.98C156.686 275.983 156.679 275.989 156.673 275.995C156.606 276.041 156.561 276.071 156.527 276.099C156.54 276.093 156.552 276.083 156.564 276.077C156.509 276.12 156.452 276.162 156.397 276.205C155.865 276.597 155.322 276.973 154.766 277.326C153.391 278.205 151.947 278.972 150.448 279.618C150.348 279.658 150.244 279.7 150.141 279.74C146.216 281.348 141.958 281.975 137.736 281.568C137.304 281.535 136.873 281.489 136.442 281.431C135.944 281.358 135.449 281.27 134.957 281.17C133.084 280.796 131.252 280.243 129.485 279.518C127.275 278.506 125.173 277.273 123.211 275.837C122.907 275.622 122.6 275.406 122.294 275.197C122.643 274.34 122.986 273.484 123.32 272.621C123.487 272.205 123.648 271.789 123.806 271.37C125.048 268.142 126.214 264.884 127.332 261.613C128.461 258.3 129.527 254.968 130.529 251.616C130.633 251.276 130.733 250.936 130.83 250.596C131.355 248.825 131.859 247.051 132.342 245.272C132.388 245.099 132.436 244.929 132.479 244.756C132.619 244.246 132.755 243.735 132.889 243.225C133.193 242.074 132.506 240.699 131.298 240.422C130.716 240.273 130.099 240.356 129.576 240.652C129.054 240.949 128.667 241.437 128.498 242.014C128.367 242.506 128.237 242.994 128.103 243.486C127.462 245.864 126.788 248.234 126.08 250.596C125.977 250.936 125.874 251.276 125.771 251.616C124.21 256.76 122.496 261.853 120.629 266.894C120.405 267.504 120.177 268.113 119.946 268.719C119.834 269.017 119.721 269.314 119.606 269.612C119.384 270.198 119.157 270.784 118.929 271.37C118.798 271.713 118.665 272.057 118.531 272.397C118.443 272.612 118.358 272.828 118.273 273.041C117.407 272.73 116.51 272.514 115.597 272.397L115.452 272.379C114.744 272.293 114.029 272.3 113.323 272.397C112.266 272.52 111.25 272.874 110.345 273.433C109.44 273.993 108.67 274.744 108.087 275.634C106.639 277.915 106.657 281.176 108.689 283.114C110.781 285.109 113.948 285.094 116.411 283.846C117.716 283.139 118.817 282.108 119.606 280.851C119.908 280.396 120.186 279.924 120.438 279.439C120.502 279.482 120.566 279.524 120.629 279.57C120.872 279.74 121.115 279.913 121.355 280.083C122.753 281.096 124.226 282 125.762 282.789C129.063 284.43 132.617 285.505 136.275 285.968C136.357 285.977 136.436 285.99 136.518 285.999C136.922 286.05 137.329 286.09 137.736 286.123C143.573 286.563 149.418 285.368 154.614 282.673C155.055 282.446 155.491 282.207 155.923 281.957C156.594 281.568 157.25 281.155 157.891 280.718C158.24 280.481 158.58 280.241 158.917 279.989C160.39 278.904 161.763 277.689 163.02 276.36C163.497 275.859 163.953 275.341 164.39 274.808C164.802 274.372 165.04 273.799 165.058 273.198C165.055 272.924 165.004 272.653 164.906 272.397ZM114.62 279.63C114.683 279.585 114.747 279.536 114.808 279.488C114.79 279.533 114.702 279.585 114.62 279.63H114.62ZM115.594 278.65C115.525 278.729 115.461 278.807 115.391 278.886C115.178 279.124 114.95 279.347 114.708 279.555C114.674 279.585 114.638 279.615 114.601 279.643C114.601 279.643 114.601 279.643 114.6 279.643C114.6 279.643 114.599 279.643 114.599 279.643C114.599 279.644 114.599 279.644 114.599 279.644C114.598 279.645 114.598 279.645 114.598 279.646C114.554 279.665 114.512 279.688 114.471 279.712C114.34 279.791 114.207 279.864 114.07 279.931C113.802 280.03 113.527 280.106 113.247 280.159C113.032 280.175 112.816 280.177 112.6 280.165H112.594C112.445 280.132 112.298 280.091 112.154 280.043C112.081 280.007 112.011 279.965 111.941 279.922C111.914 279.898 111.889 279.873 111.874 279.858C111.845 279.831 111.817 279.802 111.792 279.77C111.792 279.77 111.792 279.769 111.792 279.769C111.792 279.769 111.792 279.768 111.791 279.768C111.791 279.768 111.791 279.767 111.79 279.767C111.79 279.767 111.79 279.767 111.789 279.767C111.756 279.706 111.719 279.646 111.686 279.585C111.684 279.583 111.683 279.581 111.683 279.579C111.659 279.503 111.637 279.424 111.619 279.345C111.613 279.206 111.614 279.067 111.622 278.929C111.663 278.735 111.718 278.544 111.786 278.358C111.848 278.226 111.918 278.098 111.996 277.975C112.002 277.963 112.032 277.915 112.066 277.86C112.069 277.857 112.069 277.857 112.069 277.854C112.114 277.802 112.16 277.748 112.208 277.699C112.29 277.608 112.378 277.529 112.466 277.447C112.638 277.335 112.815 277.232 112.998 277.14C113.288 277.037 113.585 276.957 113.888 276.9C114.334 276.865 114.782 276.869 115.227 276.913C115.649 276.986 116.065 277.088 116.472 277.219C116.225 277.698 115.944 278.159 115.631 278.598C115.619 278.616 115.607 278.634 115.594 278.65ZM112.217 277.65C112.191 277.693 112.159 277.733 112.123 277.769C112.147 277.724 112.179 277.684 112.217 277.65Z" fill="white"/>
<path d="M155.777 241.382C155.75 242.335 155.722 243.289 155.695 244.242C155.637 246.359 155.578 248.477 155.516 250.595C155.452 252.979 155.385 255.362 155.315 257.744C155.282 258.974 155.248 260.204 155.212 261.434C155.118 264.747 155.025 268.059 154.933 271.37C154.924 271.713 154.911 272.053 154.902 272.396C154.857 274.039 154.811 275.682 154.766 277.325C154.714 279.108 154.663 280.89 154.614 282.673C154.577 284.009 154.54 285.346 154.501 286.685C154.228 296.381 153.955 306.078 153.682 315.774C153.67 316.375 153.426 316.947 153.002 317.372C152.577 317.797 152.004 318.04 151.404 318.052C150.801 318.047 150.225 317.805 149.799 317.379C149.373 316.953 149.131 316.377 149.126 315.774C149.278 310.32 149.432 304.866 149.588 299.412C149.725 294.48 149.863 289.548 150.004 284.617C150.05 282.992 150.095 281.366 150.141 279.739C150.21 277.292 150.279 274.844 150.347 272.396C150.356 272.053 150.368 271.713 150.378 271.37C150.384 271.069 150.393 270.772 150.402 270.471C150.535 265.719 150.669 260.965 150.803 256.21C150.857 254.34 150.91 252.468 150.961 250.595C151.021 248.46 151.082 246.327 151.143 244.194C151.17 243.255 151.194 242.32 151.222 241.382C151.233 240.781 151.477 240.209 151.902 239.784C152.326 239.359 152.899 239.116 153.499 239.104C154.102 239.109 154.678 239.35 155.104 239.776C155.531 240.203 155.772 240.779 155.777 241.382Z" fill="white"/>
<path d="M280.72 242.014C278.332 251.057 275.477 259.971 272.168 268.72C271.255 271.133 270.321 273.541 269.322 275.92L269.552 275.376C269.106 276.51 268.537 277.59 267.854 278.599C267.808 278.664 267.76 278.728 267.712 278.792C267.948 278.49 267.993 278.431 267.847 278.613C267.77 278.705 267.694 278.796 267.614 278.885C267.401 279.123 267.173 279.347 266.931 279.554C266.87 279.607 266.808 279.658 266.745 279.707L267.03 279.486C266.997 279.564 266.765 279.668 266.692 279.712C266.459 279.853 266.214 279.977 265.962 280.082L266.506 279.852C266.093 280.019 265.662 280.137 265.221 280.205L265.827 280.123C265.394 280.183 264.956 280.188 264.522 280.137L265.127 280.219C264.772 280.17 264.425 280.076 264.093 279.94L264.637 280.17C264.46 280.093 264.29 280.002 264.127 279.898C264.045 279.844 263.792 279.652 264.123 279.905C264.467 280.168 264.167 279.928 264.096 279.858C264.037 279.8 263.984 279.736 263.926 279.677C263.658 279.402 264.229 280.15 264.047 279.828C263.949 279.667 263.86 279.502 263.78 279.331L264.01 279.875C263.905 279.617 263.831 279.346 263.789 279.07L263.87 279.676C263.826 279.332 263.826 278.985 263.869 278.642L263.788 279.247C263.843 278.864 263.945 278.489 264.09 278.13L263.86 278.674C263.961 278.432 264.081 278.199 264.218 277.976C264.281 277.86 264.355 277.751 264.439 277.65C264.454 277.655 264.054 278.11 264.266 277.88C264.322 277.82 264.374 277.757 264.43 277.697C264.52 277.602 264.616 277.515 264.711 277.425C265.028 277.123 264.267 277.718 264.633 277.479C264.898 277.305 265.178 277.152 265.468 277.024L264.924 277.253C265.41 277.054 265.92 276.917 266.441 276.847L265.835 276.928C266.488 276.853 267.147 276.861 267.797 276.951L267.192 276.87C268.015 276.995 268.82 277.221 269.588 277.544L269.044 277.314C270.681 278.017 272.131 279.06 273.578 280.083C274.975 281.095 276.448 282 277.983 282.788C281.285 284.43 284.839 285.505 288.497 285.969C293.743 286.611 299.067 285.926 303.979 283.976C308.892 282.026 313.236 278.874 316.613 274.808C317.026 274.371 317.263 273.798 317.281 273.197C317.276 272.594 317.037 272.016 316.613 271.587C315.778 270.82 314.199 270.603 313.392 271.587C312.628 272.521 311.806 273.406 310.931 274.237C310.522 274.625 310.103 275 309.673 275.364C309.427 275.571 309.178 275.775 308.925 275.974C308.806 276.069 308.434 276.32 309.005 275.914C308.874 276.007 308.749 276.109 308.619 276.204C306.707 277.614 304.634 278.793 302.445 279.716L302.989 279.487C300.64 280.472 298.172 281.148 295.649 281.498L296.254 281.417C293.658 281.758 291.028 281.754 288.433 281.405L289.039 281.486C286.444 281.13 283.907 280.439 281.49 279.43L282.034 279.66C279.702 278.628 277.489 277.346 275.433 275.836C274.364 275.044 273.235 274.334 272.059 273.712C270.687 273.012 269.203 272.561 267.674 272.38C264.808 272.042 261.887 273.159 260.311 275.635C258.861 277.914 258.879 281.175 260.91 283.113C263.002 285.109 266.17 285.092 268.635 283.844C271.009 282.641 272.435 280.143 273.437 277.788C275.694 272.487 277.692 267.064 279.553 261.613C281.395 256.22 283.065 250.773 284.564 245.271C284.749 244.59 284.932 243.907 285.112 243.225C285.416 242.074 284.729 240.698 283.522 240.423C282.939 240.273 282.322 240.355 281.799 240.652C281.276 240.949 280.889 241.437 280.72 242.014L280.72 242.014Z" fill="white"/>
<path d="M303.445 241.381L302.625 270.472L301.81 299.411L301.349 315.774C301.354 316.376 301.595 316.953 302.021 317.379C302.447 317.805 303.024 318.046 303.626 318.052C304.227 318.04 304.799 317.796 305.224 317.372C305.649 316.947 305.892 316.374 305.904 315.774L306.724 286.684L307.539 257.745L308 241.381C307.995 240.779 307.754 240.202 307.328 239.776C306.902 239.35 306.325 239.109 305.723 239.104C305.122 239.115 304.55 239.359 304.125 239.783C303.7 240.208 303.457 240.781 303.445 241.381Z" fill="white"/>
<path d="M221.311 294.184C220.125 299.554 217.284 304.4 213.2 308.02C212.901 308.283 212.601 308.537 212.29 308.788C211.533 308.858 210.782 308.929 210.036 309.001C209.417 309.059 208.806 309.12 208.199 309.178L208.09 309.19L208.013 308.517L207.706 305.791C206.513 303.815 205.774 301.591 205.543 299.286C205.312 296.98 205.595 294.651 206.371 292.472C207.439 289.549 209.373 286.966 211.274 284.404C213.9 280.865 216.453 277.367 216.546 273.052C217.838 274.73 218.912 276.569 219.742 278.525C218.959 278.899 218.255 279.425 217.67 280.073C217.504 280.258 217.339 280.516 217.452 280.738C217.549 280.927 217.792 280.972 218.002 280.997C218.508 281.05 219.018 281.103 219.523 281.157C219.928 281.202 220.332 281.243 220.737 281.288C221.226 282.918 221.558 284.593 221.728 286.289C222.001 288.926 221.86 291.591 221.311 294.184Z" fill="white"/>
<path d="M234.923 283.412C232.52 285.154 231.115 287.66 230.023 290.421C228.904 290.778 227.898 291.419 227.103 292.281C226.936 292.464 226.769 292.72 226.883 292.939C226.981 293.126 227.225 293.171 227.437 293.195C227.946 293.248 228.459 293.301 228.968 293.353C227.877 296.618 226.875 299.997 224.944 302.755C223.661 304.575 221.987 306.088 220.045 307.185C219.516 307.486 218.969 307.756 218.408 307.993C216.339 308.152 214.309 308.321 212.319 308.501C211.558 308.57 210.801 308.64 210.051 308.712C209.428 308.769 208.813 308.83 208.202 308.887C208.198 308.663 208.198 308.44 208.202 308.217C208.331 302.267 210.526 296.546 214.413 292.029C214.596 291.818 214.783 291.611 214.975 291.404C216.944 289.307 219.259 287.562 221.821 286.247C225.857 284.154 230.38 283.176 234.923 283.412Z" fill="#47A138"/>
<path d="M210.668 306.703L210.201 308.089L209.965 308.795C209.343 308.852 208.728 308.913 208.118 308.97L208.009 308.982C207.333 309.052 206.662 309.121 205.991 309.19C205.816 308.986 205.641 308.778 205.471 308.566C201.225 303.413 199.187 296.785 199.802 290.131C200.417 283.476 203.635 277.336 208.753 273.052C208.216 275.869 208.842 278.568 209.871 281.247C209.761 281.292 209.656 281.337 209.554 281.386C208.767 281.757 208.059 282.279 207.472 282.922C207.305 283.106 207.138 283.363 207.252 283.583C207.35 283.771 207.594 283.815 207.805 283.84C208.314 283.893 208.826 283.946 209.334 283.999C209.741 284.044 210.148 284.084 210.555 284.129C210.746 284.15 210.937 284.17 211.128 284.19C211.157 284.252 211.181 284.309 211.209 284.37C212.369 286.889 213.617 289.421 214.321 292.047C214.497 292.705 214.636 293.374 214.736 294.048C215.049 296.329 214.846 298.65 214.142 300.841C213.438 303.032 212.251 305.035 210.668 306.703Z" fill="#47A138"/>
<path d="M242.921 263.353C240.306 258.254 236.256 253.963 231.493 250.81C226.714 247.662 221.23 245.744 215.53 245.229C214.783 245.161 214.034 245.121 213.283 245.109C212.396 245.096 199.051 248.945 194.581 252.089C190.113 255.194 186.437 259.305 183.851 264.092C181.269 268.905 179.999 274.313 180.168 279.772C180.39 285.264 181.921 290.624 184.633 295.404C187.309 300.169 191.108 304.209 195.701 307.171C200.359 310.143 205.037 318.023 210.537 318.301C216.078 318.581 222.397 311.148 227.45 308.891C232.504 306.615 236.873 303.055 240.122 298.564C243.279 294.164 245.321 289.063 246.073 283.7C246.855 278.208 246.491 272.545 244.615 267.296C244.134 265.948 243.568 264.631 242.921 263.353C242.38 262.289 240.796 261.897 239.805 262.536C239.294 262.851 238.924 263.35 238.772 263.931C238.619 264.511 238.697 265.128 238.988 265.653C239.305 266.278 239.6 266.913 239.873 267.559L239.643 267.015C240.676 269.497 241.378 272.105 241.731 274.77L241.65 274.165C242.026 277.056 242.02 279.985 241.63 282.875L241.711 282.27C241.318 285.159 240.546 287.985 239.417 290.674L239.647 290.13C239.066 291.502 238.389 292.831 237.621 294.107C237.231 294.752 236.818 295.382 236.382 295.997C236.19 296.266 235.992 296.532 235.793 296.796C235.533 297.141 236.147 296.345 235.879 296.684C235.833 296.741 235.787 296.799 235.741 296.856C235.603 297.029 235.463 297.2 235.322 297.369C234.375 298.499 233.342 299.553 232.231 300.522C231.955 300.764 231.674 301 231.388 301.23C231.245 301.345 231.105 301.465 230.956 301.572C230.962 301.568 231.436 301.208 231.155 301.417C231.067 301.482 230.98 301.549 230.891 301.615C230.302 302.051 229.697 302.465 229.077 302.857C227.649 303.757 226.15 304.54 224.596 305.2L225.14 304.97C222.459 306.099 219.641 306.87 216.759 307.263L217.365 307.182C214.484 307.571 211.565 307.576 208.683 307.197L209.288 307.279C206.669 306.927 204.107 306.234 201.668 305.218L202.212 305.448C200.798 304.851 199.436 304.141 198.137 303.325C197.495 302.92 196.869 302.49 196.26 302.035C196.173 301.97 196.086 301.904 196 301.839C195.722 301.629 196.2 301.994 196.203 301.996C196.042 301.88 195.886 301.756 195.737 301.624C195.443 301.385 195.153 301.14 194.868 300.889C193.728 299.884 192.663 298.797 191.682 297.637C191.436 297.346 191.196 297.052 190.961 296.753C190.859 296.623 190.673 296.361 191.084 296.913C191.03 296.841 190.974 296.769 190.919 296.697C190.788 296.523 190.659 296.349 190.532 296.172C190.086 295.555 189.662 294.923 189.26 294.276C188.352 292.81 187.559 291.276 186.89 289.687L187.119 290.232C186.023 287.624 185.274 284.884 184.89 282.082L184.971 282.687C184.625 280.104 184.62 277.486 184.957 274.902L184.875 275.507C185.22 273.005 185.894 270.558 186.878 268.232L186.648 268.776C187.268 267.319 187.998 265.912 188.833 264.568C189.252 263.895 189.695 263.239 190.163 262.598C190.269 262.453 190.377 262.309 190.485 262.165C190.584 262.035 190.854 261.711 190.393 262.283C190.438 262.227 190.482 262.169 190.526 262.113C190.783 261.787 191.046 261.467 191.316 261.152C192.335 259.958 193.44 258.839 194.621 257.805C194.919 257.543 195.222 257.287 195.53 257.037C195.67 256.923 195.811 256.81 195.953 256.699C196.009 256.654 196.067 256.61 196.123 256.566C195.516 257.048 195.955 256.697 196.092 256.594C196.727 256.118 197.378 255.667 198.046 255.239C199.532 254.289 201.095 253.465 202.719 252.777L202.175 253.006C204.532 252.017 214.972 249.681 216.871 249.936L216.266 249.855C219.057 250.244 221.785 250.998 224.38 252.097L223.836 251.867C225.151 252.426 226.429 253.068 227.662 253.789C228.279 254.15 228.883 254.531 229.475 254.932C229.755 255.121 230.032 255.315 230.306 255.513C230.443 255.612 230.58 255.712 230.715 255.814C230.79 255.87 230.865 255.927 230.94 255.983C231.256 256.22 230.505 255.64 230.836 255.902C231.944 256.772 232.995 257.711 233.985 258.712C234.471 259.207 234.94 259.718 235.393 260.244C235.625 260.514 235.852 260.788 236.075 261.066C236.186 261.205 236.563 261.705 236.101 261.092C236.214 261.242 236.328 261.391 236.439 261.541C237.399 262.84 238.251 264.215 238.988 265.653C239.532 266.715 241.109 267.111 242.104 266.47C242.615 266.155 242.985 265.656 243.137 265.075C243.289 264.495 243.212 263.878 242.921 263.353Z" fill="white"/>
<path d="M113.967 281.555C115.812 281.555 117.307 280.06 117.307 278.215C117.307 276.37 115.812 274.875 113.967 274.875C112.122 274.875 110.626 276.37 110.626 278.215C110.626 280.06 112.122 281.555 113.967 281.555Z" fill="white"/>
<path d="M154.052 317.997C155.897 317.997 157.393 316.501 157.393 314.656C157.393 312.812 155.897 311.316 154.052 311.316C152.207 311.316 150.712 312.812 150.712 314.656C150.712 316.501 152.207 317.997 154.052 317.997Z" fill="white"/>
<path d="M306.197 317.997C308.042 317.997 309.537 316.501 309.537 314.656C309.537 312.812 308.042 311.316 306.197 311.316C304.352 311.316 302.856 312.812 302.856 314.656C302.856 316.501 304.352 317.997 306.197 317.997Z" fill="white"/>
<path d="M314.395 275.482C316.24 275.482 317.735 273.986 317.735 272.141C317.735 270.296 316.24 268.801 314.395 268.801C312.55 268.801 311.055 270.296 311.055 272.141C311.055 273.986 312.55 275.482 314.395 275.482Z" fill="white"/>
<path d="M304.678 244.507C306.523 244.507 308.018 243.011 308.018 241.166C308.018 239.321 306.523 237.826 304.678 237.826C302.833 237.826 301.337 239.321 301.337 241.166C301.337 243.011 302.833 244.507 304.678 244.507Z" fill="white"/>
<path d="M165.288 272.141C165.286 272.995 164.956 273.815 164.367 274.431C163.777 275.048 162.973 275.415 162.121 275.455C161.268 275.495 160.433 275.206 159.788 274.648C159.142 274.09 158.737 273.305 158.654 272.455C158.571 271.606 158.819 270.758 159.344 270.085C159.87 269.413 160.634 268.969 161.478 268.844C162.322 268.72 163.182 268.924 163.879 269.416C164.577 269.908 165.058 270.649 165.225 271.485C165.267 271.701 165.289 271.921 165.288 272.141Z" fill="white"/>
<path d="M155.874 241.166C155.872 242.02 155.542 242.839 154.953 243.456C154.363 244.073 153.559 244.439 152.706 244.48C151.854 244.52 151.019 244.231 150.374 243.673C149.728 243.115 149.322 242.33 149.24 241.48C149.157 240.631 149.404 239.782 149.93 239.11C150.456 238.438 151.22 237.994 152.064 237.869C152.908 237.745 153.768 237.949 154.465 238.441C155.162 238.933 155.644 239.673 155.81 240.51C155.853 240.726 155.875 240.946 155.874 241.166Z" fill="white"/>
<path d="M267.022 282.77C268.867 282.77 270.362 281.275 270.362 279.43C270.362 277.585 268.867 276.089 267.022 276.089C265.177 276.089 263.681 277.585 263.681 279.43C263.681 281.275 265.177 282.77 267.022 282.77Z" fill="white"/>
</svg>
